<svg width="134" height="49" viewBox="0 0 134 49" fill="none" xmlns="http://www.w3.org/2000/svg">
<g clip-path="url(#clip0_2_226)">
<path d="M15.135 6.75409H0.500015V41.7541L15.135 6.75409Z" fill="#184E7F" fill-opacity="0.6"/>
<path d="M25.4332 6.75464H40.0491V41.7546L25.4332 6.75464Z" fill="#184E7F" fill-opacity="0.6"/>
<path d="M20.2847 19.6546L29.5996 41.7548H23.4882L20.7042 34.7186H13.8872L20.2847 19.6546Z" fill="#184E7F" fill-opacity="0.6"/>
<path d="M63.9241 29.0127L65.6498 33.9609C65.707 34.0848 65.7928 34.1421 65.9453 34.1421H69.2632C69.4444 34.1421 69.473 34.0562 69.4444 33.8751L62.5893 14.8353C62.5607 14.6828 62.5321 14.6542 62.3795 14.6542H58.2608C58.1464 14.6542 58.0796 14.74 58.0796 14.8639C58.0224 15.865 57.9366 16.1701 57.8127 16.4657L51.7013 33.8465C51.6727 34.0563 51.7394 34.1421 51.911 34.1421H54.8761C55.0573 34.1421 55.1431 34.0848 55.2098 33.9037L56.8402 29.0127H63.9241ZM57.7841 25.7806C58.6803 23.0729 59.8625 19.6024 60.3392 17.6193H60.3678C60.959 19.6978 62.351 23.8165 62.9802 25.7806H57.7841Z" fill="#184E7F" fill-opacity="0.6"/>
<path d="M78.2582 34.4376C80.0411 34.4376 81.9384 34.1134 83.8643 33.2839C84.0168 33.2267 84.0454 33.16 84.0454 33.017C83.9882 32.4831 83.9215 31.7108 83.9215 31.1197V13.1954C83.9215 13.081 83.9215 13.0238 83.7785 13.0238H80.5464C80.4225 13.0238 80.3653 13.081 80.3653 13.2336V19.3068C79.8599 19.2496 79.5072 19.221 79.0877 19.221C73.8725 19.221 70.669 22.6629 70.669 26.9628C70.669 31.9492 73.9583 34.4376 78.2582 34.4376ZM80.3653 31.1197C79.8313 31.2913 79.2402 31.358 78.6396 31.358C76.2751 31.358 74.3396 30.0233 74.3396 26.7816C74.3396 23.9118 76.3323 22.2148 78.9733 22.2148C79.5072 22.2148 79.9743 22.272 80.3653 22.4245V31.1197Z" fill="#184E7F" fill-opacity="0.6"/>
<path d="M94.3573 19.2209C89.9048 19.2209 87.1494 22.6342 87.1494 26.8483C87.1494 30.6143 89.3423 34.4375 94.2905 34.4375C98.476 34.4375 101.413 31.358 101.413 26.753C101.413 22.6914 98.9241 19.2209 94.3573 19.2209ZM94.1761 22.2147C96.6931 22.2147 97.761 24.3789 97.761 26.8483C97.761 29.8992 96.1878 31.4152 94.3573 31.4152C92.0977 31.4152 90.7629 29.5179 90.7629 26.7816C90.7629 23.969 92.1835 22.2147 94.1761 22.2147Z" fill="#184E7F" fill-opacity="0.6"/>
<path d="M104.753 13.0238C104.629 13.0238 104.543 13.081 104.543 13.2336V33.5223C104.543 33.6081 104.629 33.7607 104.753 33.7893C106.173 34.2278 107.661 34.4376 109.196 34.4376C113.591 34.4376 117.862 31.7108 117.862 26.2191C117.862 22.2434 115.135 19.221 110.864 19.221C109.882 19.221 108.967 19.3736 108.166 19.6405L108.128 13.2622C108.128 13.0524 108.071 13.0238 107.861 13.0238H104.753ZM114.211 26.5814C114.211 29.8707 111.961 31.4152 109.529 31.4152C109.024 31.4152 108.576 31.3866 108.166 31.2627V22.6057C108.633 22.4245 109.196 22.272 110.235 22.272C112.58 22.272 114.211 23.7593 114.211 26.5814Z" fill="#184E7F" fill-opacity="0.6"/>
<path d="M129.923 27.6492C131.372 27.6492 132.564 27.6206 132.974 27.5252C133.127 27.4966 133.184 27.4394 133.213 27.3155C133.298 26.9913 133.337 26.3144 133.337 25.4849C133.337 22.6628 131.639 19.2209 127.254 19.2209C122.773 19.2209 120.284 22.8725 120.284 26.9913C120.284 30.6429 122.21 34.4375 127.606 34.4375C129.628 34.4375 130.934 34.1133 132.059 33.5794C132.173 33.5222 132.231 33.4269 132.231 33.2553V30.7859C132.231 30.6429 132.145 30.6143 132.059 30.6715C130.934 31.1482 129.714 31.3866 128.379 31.3866C125.356 31.3866 123.983 29.7181 123.898 27.6492H129.923ZM123.898 25.094C124.136 23.6448 125.051 22.0717 127.101 22.0717C129.361 22.0717 129.952 23.969 129.952 24.8271C129.952 24.8557 129.952 24.9796 129.952 25.0654C129.828 25.094 129.447 25.094 128.322 25.094H123.898Z" fill="#184E7F" fill-opacity="0.6"/>
</g>
<defs>
<clipPath id="clip0_2_226">
<rect width="133" height="48" fill="white" transform="translate(0.499985 0.754822)"/>
</clipPath>
</defs>
</svg>
