<svg width="155" height="49" viewBox="0 0 155 49" fill="none" xmlns="http://www.w3.org/2000/svg">
<g clip-path="url(#clip0_2_247)">
<path d="M62.0107 26.4176L59.3335 19.4111C59.2243 19.1246 58.8068 19.1246 58.6973 19.4111L56.0207 26.418C56.0017 26.4678 55.9954 26.5213 56.0023 26.574C56.0092 26.6267 56.0291 26.677 56.0604 26.7206C56.0917 26.7642 56.1333 26.7998 56.1818 26.8244C56.2303 26.849 56.2842 26.8618 56.3389 26.8618H61.6924C61.7472 26.8618 61.8011 26.8489 61.8495 26.8243C61.898 26.7997 61.9397 26.7641 61.9709 26.7204C62.0022 26.6768 62.0221 26.6265 62.0289 26.5738C62.0358 26.5211 62.0295 26.4676 62.0104 26.4178L62.0107 26.4176ZM63.2473 30.3558H54.7842C54.715 30.3558 54.6474 30.3764 54.5906 30.4148C54.5337 30.4532 54.4904 30.5075 54.4663 30.5705L52.8001 34.9301C52.776 34.9932 52.7326 35.0475 52.6758 35.0859C52.6189 35.1243 52.5514 35.1449 52.4821 35.1449H48.814C48.7585 35.1449 48.7039 35.1317 48.6549 35.1064C48.606 35.0812 48.5641 35.0447 48.533 35.0001C48.502 34.9555 48.4826 34.9042 48.4767 34.8506C48.4708 34.7971 48.4785 34.743 48.4991 34.693L56.9443 14.2669C56.9696 14.2059 57.0132 14.1537 57.0693 14.1169C57.1255 14.0801 57.1917 14.0605 57.2594 14.0605H60.7717C60.9101 14.0605 61.0348 14.1422 61.0865 14.2669L69.5315 34.6928C69.5522 34.7428 69.56 34.7969 69.5542 34.8505C69.5483 34.9041 69.529 34.9555 69.4979 35.0002C69.4668 35.0448 69.4249 35.0814 69.3759 35.1066C69.3269 35.1319 69.2722 35.1451 69.2167 35.1451H65.5492C65.48 35.1451 65.4124 35.1245 65.3555 35.086C65.2987 35.0476 65.2553 34.9932 65.2312 34.9301L63.5649 30.5705C63.5408 30.5075 63.4974 30.4532 63.4405 30.4148C63.3837 30.3764 63.3161 30.3558 63.2469 30.3558H63.2473ZM71.2502 21.229H74.3875C74.4775 21.229 74.5638 21.2637 74.6274 21.3255C74.691 21.3873 74.7268 21.4711 74.7268 21.5584V34.8155C74.7268 34.9029 74.691 34.9867 74.6274 35.0484C74.5638 35.1102 74.4775 35.1449 74.3875 35.1449H71.2502C71.1602 35.1449 71.0739 35.1102 71.0103 35.0484C70.9466 34.9867 70.9109 34.9029 70.9109 34.8155V21.5582C70.9109 21.4708 70.9466 21.3871 71.0103 21.3253C71.0739 21.2635 71.1602 21.2288 71.2502 21.2288V21.229ZM86.1689 24.4538C86.1689 24.5412 86.1331 24.625 86.0695 24.6867C86.0059 24.7485 85.9196 24.7832 85.8296 24.7832H85.7346C84.1834 24.7832 83.0455 25.1446 82.3218 25.8675C81.5976 26.5904 81.2362 27.7854 81.2362 29.452V34.8155C81.2362 34.9029 81.2005 34.9867 81.1369 35.0484C81.0732 35.1102 80.9869 35.1449 80.897 35.1449H77.7904C77.7004 35.1449 77.6141 35.1102 77.5505 35.0484C77.4869 34.9867 77.4511 34.9029 77.4511 34.8155V21.5582C77.4511 21.4708 77.4869 21.3871 77.5505 21.3253C77.6141 21.2635 77.7004 21.2288 77.7904 21.2288H80.8658C80.9557 21.2288 81.042 21.2635 81.1056 21.3253C81.1693 21.3871 81.205 21.4708 81.205 21.5582V24.1805H81.2672C81.6395 23.0962 82.2288 22.2633 83.0358 21.6805C83.8421 21.0984 84.8349 20.807 86.0137 20.807H86.1689V24.4536V24.4538ZM94.7473 24.3313C94.6573 24.3313 94.571 24.366 94.5074 24.4278C94.4438 24.4896 94.408 24.5733 94.408 24.6607V30.1749C94.408 30.7372 94.5211 31.1388 94.7491 31.3797C94.9764 31.6206 95.3695 31.7411 95.9279 31.7411H96.2402C96.3302 31.7411 96.4165 31.7758 96.4801 31.8376C96.5437 31.8994 96.5794 31.9832 96.5794 32.0705V34.8454C96.5794 34.9327 96.5437 35.0165 96.4801 35.0783C96.4165 35.1401 96.3302 35.1748 96.2402 35.1748H94.904C93.5183 35.1748 92.4533 34.8285 91.7088 34.1357C90.964 33.4429 90.5917 32.4142 90.5917 31.0484V24.6607C90.5917 24.5733 90.556 24.4896 90.4924 24.4278C90.4287 24.366 90.3425 24.3313 90.2525 24.3313H88.2941C88.2042 24.3313 88.1179 24.2966 88.0542 24.2348C87.9906 24.1731 87.9549 24.0893 87.9549 24.0019V21.5582C87.9549 21.4708 87.9906 21.3871 88.0542 21.3253C88.1179 21.2635 88.2042 21.2288 88.2941 21.2288H90.2527C90.3427 21.2288 90.429 21.1941 90.4926 21.1323C90.5562 21.0706 90.592 20.9868 90.592 20.8994V15.9858C90.592 15.8985 90.6277 15.8147 90.6913 15.7529C90.7549 15.6912 90.8412 15.6565 90.9312 15.6565H94.0686C94.1585 15.6565 94.2448 15.6912 94.3084 15.7529C94.3721 15.8147 94.4078 15.8985 94.4078 15.9858V20.8994C94.4078 20.9868 94.4435 21.0706 94.5072 21.1323C94.5708 21.1941 94.6571 21.2288 94.7471 21.2288H97.0157C97.1057 21.2288 97.192 21.2635 97.2556 21.3253C97.3192 21.3871 97.355 21.4708 97.355 21.5582V24.0022C97.355 24.0895 97.3192 24.1733 97.2556 24.2351C97.192 24.2968 97.1057 24.3315 97.0157 24.3315H94.7473V24.3313ZM109.113 31.0183C109.827 30.2954 110.184 29.3516 110.184 28.1867C110.184 27.0225 109.827 26.0783 109.113 25.3554C108.4 24.6326 107.464 24.2711 106.306 24.2711C105.147 24.2711 104.212 24.6326 103.498 25.3554C102.785 26.0783 102.428 27.0225 102.428 28.1867C102.428 29.3516 102.785 30.2954 103.498 31.0183C104.212 31.7411 105.147 32.1026 106.306 32.1026C107.464 32.1026 108.4 31.7411 109.113 31.0183ZM101.869 34.7231C100.815 34.141 99.9818 33.2923 99.3721 32.1779C98.7617 31.0635 98.4568 29.7333 98.4568 28.1867C98.4568 26.6409 98.7617 25.3102 99.3721 24.1958C99.9818 23.0814 100.815 22.2334 101.869 21.6506C102.924 21.0683 104.082 20.7771 105.344 20.7771C106.461 20.7771 107.417 20.9879 108.214 21.4095C109.01 21.8311 109.646 22.4238 110.122 23.1868H110.184V21.5582C110.184 21.4708 110.219 21.3871 110.283 21.3253C110.347 21.2635 110.433 21.2288 110.523 21.2288H113.629C113.719 21.2288 113.806 21.2635 113.869 21.3253C113.933 21.3871 113.969 21.4708 113.969 21.5582V34.8153C113.969 34.9027 113.933 34.9864 113.869 35.0482C113.806 35.11 113.719 35.1447 113.629 35.1447H110.523C110.433 35.1447 110.347 35.11 110.283 35.0482C110.219 34.9864 110.184 34.9027 110.184 34.8153V33.1869H110.122C109.646 33.9504 109.01 34.5424 108.214 34.964C107.417 35.3856 106.461 35.5964 105.344 35.5964C104.082 35.5964 102.924 35.3052 101.869 34.7231ZM126.888 31.0183C127.601 30.2954 127.958 29.3516 127.958 28.1867C127.958 27.0225 127.601 26.0783 126.888 25.3554C126.174 24.6326 125.238 24.2711 124.08 24.2711C122.922 24.2711 121.986 24.6326 121.273 25.3554C120.559 26.0783 120.202 27.0225 120.202 28.1867C120.202 29.3516 120.559 30.2954 121.273 31.0183C121.986 31.7411 122.922 32.1026 124.08 32.1026C125.238 32.1026 126.174 31.7411 126.888 31.0183ZM122.172 34.964C121.376 34.5424 120.74 33.9504 120.264 33.1869H120.202V34.8153C120.202 34.9027 120.166 34.9864 120.103 35.0482C120.039 35.11 119.953 35.1447 119.863 35.1447H116.725C116.636 35.1447 116.549 35.11 116.486 35.0482C116.422 34.9864 116.386 34.9027 116.386 34.8153V14.3892C116.386 14.3019 116.422 14.2181 116.486 14.1563C116.549 14.0946 116.636 14.0599 116.725 14.0599H119.863C119.953 14.0599 120.039 14.0946 120.103 14.1563C120.166 14.2181 120.202 14.3019 120.202 14.3892V23.1866H120.264C120.74 22.4236 121.376 21.8311 122.172 21.4095C122.968 20.9877 123.925 20.7769 125.042 20.7769C126.303 20.7769 127.462 21.0681 128.517 21.6504C129.571 22.2332 130.404 23.0812 131.014 24.1954C131.624 25.3104 131.929 26.6411 131.929 28.187C131.929 29.7335 131.624 31.0635 131.014 32.1781C130.404 33.2925 129.572 34.1412 128.517 34.7231C127.462 35.3054 126.304 35.5968 125.042 35.5968C123.925 35.5968 122.969 35.386 122.172 34.9642L122.172 34.964ZM137.215 35.1449H134.078C133.988 35.1449 133.902 35.1102 133.838 35.0484C133.774 34.9867 133.739 34.9029 133.739 34.8155V14.3899C133.739 14.3026 133.774 14.2188 133.838 14.157C133.902 14.0952 133.988 14.0605 134.078 14.0605H137.215C137.305 14.0605 137.392 14.0952 137.455 14.157C137.519 14.2188 137.555 14.3026 137.555 14.3899V34.8155C137.555 34.9029 137.519 34.9867 137.455 35.0484C137.392 35.1102 137.305 35.1449 137.215 35.1449ZM144.616 24.4521C144.096 24.846 143.744 25.4147 143.563 26.1587C143.513 26.3638 143.678 26.5605 143.895 26.5605H149.865C150.073 26.5605 150.235 26.3805 150.202 26.182C150.082 25.4782 149.772 24.9172 149.269 24.4973C148.68 24.0054 147.909 23.7595 146.958 23.7595C146.007 23.7595 145.226 23.9903 144.616 24.4521ZM152.263 22.72C153.483 24.0155 154.093 25.848 154.093 28.2171V28.6105C154.093 28.6979 154.058 28.7817 153.994 28.8434C153.931 28.9052 153.844 28.9399 153.754 28.9399H143.779C143.73 28.94 143.681 28.9506 143.636 28.9711C143.591 28.9915 143.551 29.0212 143.519 29.0581C143.487 29.095 143.464 29.1383 143.451 29.1848C143.438 29.2314 143.435 29.2802 143.444 29.3277C143.603 30.2078 144.004 30.9069 144.647 31.4249C145.381 32.0178 146.307 32.3136 147.423 32.3136C148.865 32.3136 150.2 31.7673 151.427 30.6744C151.577 30.5409 151.815 30.5692 151.931 30.7315L153.456 32.8571C153.504 32.9232 153.525 33.004 153.515 33.0843C153.506 33.1645 153.466 33.2385 153.404 33.2923C152.656 33.9285 151.823 34.4654 150.929 34.8889C149.936 35.3605 148.768 35.5968 147.423 35.5968C145.872 35.5968 144.517 35.2903 143.359 34.6781C142.201 34.0659 141.301 33.2025 140.66 32.0876C140.019 30.9733 139.699 29.6832 139.699 28.2171C139.699 26.7516 140.009 25.4565 140.629 24.3315C141.25 23.2073 142.118 22.3338 143.235 21.711C144.352 21.0889 145.655 20.7774 147.144 20.7774C149.336 20.7774 151.043 21.4251 152.263 22.72ZM75.1366 16.3279C75.1366 17.5703 74.0991 18.5776 72.8193 18.5776C71.5392 18.5776 70.5018 17.5703 70.5018 16.3277C70.5018 15.0851 71.5394 14.0779 72.8193 14.0779C74.0991 14.0779 75.1366 15.0851 75.1366 16.3277" fill="#184E7F" fill-opacity="0.6"/>
<path d="M18.1676 8.11904L3.24977 14.1121C2.4202 14.4454 2.42879 15.5897 3.26356 15.9109L18.2436 21.6785C19.5597 22.1853 21.0255 22.1853 22.3417 21.6785L37.3219 15.9107C38.1565 15.5897 38.1655 14.4457 37.3355 14.1123L22.4181 8.11882C21.0572 7.57205 19.5283 7.57205 18.1674 8.11882" fill="#184E7F" fill-opacity="0.6"/>
<path d="M21.6208 24.8274V39.2358C21.6208 39.9209 22.3325 40.3903 22.9886 40.1378L39.681 33.8472C39.8671 33.7756 40.0268 33.6513 40.1394 33.4904C40.2519 33.3296 40.312 33.1396 40.312 32.9452V18.537C40.312 17.8517 39.6002 17.3825 38.9441 17.635L22.2518 23.9256C22.0657 23.9973 21.906 24.1216 21.7935 24.2824C21.681 24.4433 21.6208 24.6332 21.6208 24.8276" fill="#184E7F" fill-opacity="0.6"/>
<path d="M17.7233 25.5715L12.7694 27.8938L12.2664 28.1298L1.80896 32.9947C1.1463 33.3052 0.299988 32.8361 0.299988 32.1212V18.5979C0.299988 18.3393 0.436591 18.1159 0.619785 17.948C0.694939 17.8753 0.780202 17.8132 0.873089 17.7635C1.12278 17.6179 1.47921 17.5791 1.78227 17.6954L17.64 23.7959C18.4461 24.1064 18.5094 25.203 17.7233 25.5717" fill="#184E7F" fill-opacity="0.6"/>
<path d="M17.7248 25.5706L12.7709 27.8929L0.621277 17.9469C0.696446 17.8743 0.781708 17.8123 0.874581 17.7627C1.12427 17.6171 1.4807 17.5782 1.78376 17.6946L17.6415 23.795C18.4476 24.1055 18.5109 25.2021 17.7248 25.5708" fill="#184E7F" fill-opacity="0.6"/>
</g>
<defs>
<clipPath id="clip0_2_247">
<rect width="154" height="48" fill="white" transform="translate(0.300049 0.754822)"/>
</clipPath>
</defs>
</svg>
