<svg width="25" height="25" viewBox="0 0 25 25" fill="none" xmlns="http://www.w3.org/2000/svg">
<g clip-path="url(#clip0_2_1228)">
<path fill-rule="evenodd" clip-rule="evenodd" d="M8.62262 3.26962C8.5554 3.25903 8.48707 3.25741 8.41942 3.26482C7.07382 3.41042 5.02583 4.13682 3.81622 4.79282C3.73633 4.8364 3.66482 4.89382 3.60502 4.96242C3.10262 5.53682 2.64662 6.47282 2.28982 7.35922C1.92182 8.26802 1.61782 9.22802 1.44663 9.92242C0.880226 12.1784 0.571426 14.8872 0.529826 17.4568C0.528503 17.585 0.559306 17.7115 0.619426 17.8248C1.09943 18.7416 2.13462 19.5912 3.17142 20.212C4.21942 20.8408 5.44342 21.3368 6.42902 21.4328C6.54711 21.4441 6.66621 21.4278 6.77697 21.3854C6.88773 21.3429 6.98715 21.2753 7.06742 21.188C7.31383 20.9208 7.73302 20.2968 8.04982 19.812C8.19382 19.5912 8.32982 19.38 8.43542 19.212C9.49462 19.404 10.8226 19.516 12.5026 19.516C14.1794 19.516 15.5074 19.404 16.5666 19.212C16.6722 19.3816 16.8066 19.5912 16.9506 19.8104C17.2674 20.2968 17.6866 20.9208 17.9346 21.188C18.0149 21.2753 18.1143 21.3429 18.225 21.3854C18.3358 21.4278 18.4549 21.4441 18.573 21.4328C19.5586 21.3368 20.781 20.8408 21.829 20.212C22.8658 19.5912 23.901 18.7416 24.3826 17.8248C24.4422 17.7114 24.4724 17.5849 24.4706 17.4568C24.4306 14.8872 24.1202 12.1768 23.557 9.92082C23.3307 9.04951 23.0479 8.19384 22.7106 7.35922C22.3538 6.47282 21.8978 5.53522 21.397 4.96242C21.3367 4.89367 21.2646 4.83624 21.1842 4.79282C19.9762 4.13682 17.9282 3.41042 16.581 3.26482C16.5139 3.25755 16.4461 3.25917 16.3794 3.26962C16.0778 3.32765 15.795 3.45837 15.5554 3.65042C15.0187 4.08248 14.5847 4.62845 14.285 5.24882C13.692 5.20231 13.0974 5.17936 12.5026 5.18002C11.8594 5.18002 11.2642 5.20402 10.7154 5.24722C10.4155 4.62743 9.98154 4.08202 9.44502 3.65042C9.20587 3.4586 8.92361 3.3279 8.62262 3.26962ZM18.1314 18.8088C18.3566 19.1556 18.5875 19.4986 18.8242 19.8376C19.4578 19.6936 20.2658 19.3576 21.0402 18.8936C21.909 18.3736 22.5986 17.7736 22.9314 17.2664C22.8786 14.8568 22.581 12.3544 22.0674 10.2936C21.8582 9.49097 21.5974 8.70267 21.2866 7.93362C20.9666 7.13682 20.6226 6.46162 20.3234 6.07442C19.2834 5.53522 17.6434 4.96562 16.5746 4.81042C16.5424 4.82993 16.5114 4.8513 16.4818 4.87442C16.3492 4.97872 16.228 5.09671 16.1202 5.22642C16.0571 5.30153 15.9968 5.37891 15.9394 5.45842C16.4274 5.54802 16.8626 5.65522 17.2482 5.77362C18.3426 6.10962 19.1314 6.57362 19.517 7.08722C19.6392 7.25017 19.6917 7.45499 19.6629 7.65663C19.6341 7.85827 19.5263 8.04021 19.3634 8.16242C19.2827 8.22293 19.1909 8.26696 19.0932 8.29199C18.9955 8.31702 18.8938 8.32257 18.794 8.3083C18.5923 8.2795 18.4104 8.17177 18.2882 8.00882C18.1938 7.88402 17.7826 7.54482 16.797 7.24082C15.845 6.94962 14.445 6.71602 12.5026 6.71602C10.5602 6.71602 9.15863 6.94962 8.20822 7.24242C7.22262 7.54642 6.81142 7.88242 6.71702 8.00882C6.65651 8.08951 6.5807 8.15748 6.49392 8.20887C6.40713 8.26025 6.31108 8.29404 6.21124 8.3083C6.0096 8.33711 5.80477 8.28463 5.64182 8.16242C5.56114 8.10191 5.49317 8.0261 5.44178 7.93931C5.3904 7.85253 5.35661 7.75647 5.34234 7.65663C5.31354 7.45499 5.36601 7.25017 5.48822 7.08722C5.87382 6.57202 6.66262 6.11122 7.75702 5.77522C8.14102 5.65522 8.57622 5.54962 9.06262 5.46002C9.00511 5.37964 8.94426 5.30171 8.88022 5.22642C8.7729 5.09679 8.65223 4.97881 8.52023 4.87442C8.49005 4.85125 8.45852 4.82988 8.42583 4.81042C7.35862 4.96562 5.71862 5.53522 4.67862 6.07442C4.37782 6.46322 4.03542 7.13682 3.71382 7.93362C3.37302 8.78162 3.08982 9.67282 2.93462 10.2936C2.41942 12.3544 2.12182 14.8568 2.07062 17.2664C2.40342 17.7752 3.09142 18.3736 3.96022 18.8952C4.73622 19.3592 5.54262 19.6952 6.17782 19.8376C6.41687 19.5002 6.64787 19.1572 6.87062 18.8088C5.61462 18.3624 4.94102 17.7496 4.50262 17.0936C4.44673 17.0096 4.40794 16.9153 4.38847 16.8163C4.369 16.7172 4.36922 16.6153 4.38913 16.5164C4.40904 16.4174 4.44824 16.3234 4.5045 16.2396C4.56076 16.1558 4.63298 16.0839 4.71702 16.028C4.80107 15.9721 4.8953 15.9333 4.99434 15.9138C5.09338 15.8944 5.19528 15.8946 5.29423 15.9145C5.39318 15.9344 5.48724 15.9736 5.57104 16.0299C5.65484 16.0861 5.72673 16.1584 5.78262 16.2424C6.19862 16.8696 7.29302 17.98 12.5026 17.98C17.7138 17.98 18.8066 16.8696 19.2226 16.2424C19.3355 16.0727 19.5111 15.9547 19.711 15.9145C19.9108 15.8743 20.1184 15.9151 20.2882 16.028C20.4579 16.1409 20.5759 16.3166 20.6161 16.5164C20.6563 16.7162 20.6155 16.9239 20.5026 17.0936C20.0642 17.7496 19.389 18.364 18.1314 18.8088ZM7.03062 11.5672C7.42102 11.148 7.95062 10.9112 8.50262 10.908C9.05463 10.9112 9.58423 11.148 9.97463 11.5672C10.3634 11.988 10.5826 12.556 10.5826 13.148C10.5826 13.74 10.3634 14.308 9.97463 14.7288C9.58423 15.148 9.05463 15.3848 8.50262 15.388C8.22515 15.3851 7.95126 15.325 7.69801 15.2116C7.44476 15.0982 7.21758 14.9339 7.03062 14.7288C6.6364 14.2971 6.41931 13.7326 6.42262 13.148C6.42262 12.556 6.64182 11.988 7.03062 11.5672ZM16.5026 10.908C15.9506 10.9112 15.421 11.148 15.0306 11.5672C14.6418 11.988 14.4226 12.556 14.4226 13.148C14.4226 13.74 14.6418 14.308 15.0306 14.7288C15.421 15.148 15.9506 15.3848 16.5026 15.388C17.0546 15.3848 17.5842 15.148 17.9746 14.7288C18.3634 14.308 18.5826 13.74 18.5826 13.148C18.5826 12.556 18.3634 11.988 17.9746 11.5672C17.7876 11.3621 17.5605 11.1978 17.3072 11.0844C17.0539 10.971 16.7801 10.9109 16.5026 10.908Z" fill="#616161"/>
</g>
<defs>
<clipPath id="clip0_2_1228">
<rect width="24" height="24" fill="white" transform="translate(0.501953 0.348389)"/>
</clipPath>
</defs>
</svg>
