<svg width="129" height="49" viewBox="0 0 129 49" fill="none" xmlns="http://www.w3.org/2000/svg">
<g clip-path="url(#clip0_2_235)">
<path d="M44.272 24.8077C44.2762 23.0152 43.726 21.2654 42.697 19.7978C41.6679 18.3303 40.2102 17.2168 38.5236 16.61C38.6771 15.8277 38.7545 15.0323 38.7547 14.2351C38.7562 11.5963 37.9209 9.02504 36.3689 6.89091C34.8169 4.75679 32.6281 3.16977 30.1173 2.35803C27.6064 1.54629 24.9028 1.55164 22.3952 2.37331C19.8876 3.19498 17.7052 4.79065 16.1616 6.9309C15.0228 6.04844 13.6275 5.56115 12.187 5.54283C10.7464 5.52451 9.33912 5.97617 8.17828 6.82939C7.01744 7.6826 6.16629 8.89089 5.75375 10.2712C5.34121 11.6516 5.38976 13.1288 5.89204 14.479C4.20149 15.0952 2.7402 16.2144 1.70471 17.6859C0.669215 19.1574 0.109206 20.9108 0.100005 22.7101C0.0953142 24.5087 0.648297 26.2645 1.68282 27.7359C2.71734 29.2072 4.18252 30.3216 5.87664 30.9258C5.72668 31.7077 5.65018 32.5019 5.64814 33.298C5.64562 35.9338 6.48022 38.5022 8.03161 40.633C9.58299 42.7638 11.771 44.3469 14.2801 45.1539C16.7893 45.961 19.4899 45.9503 21.9926 45.1235C24.4953 44.2967 26.6707 42.6964 28.2053 40.5535C29.3407 41.4381 30.7337 41.9284 32.1729 41.9499C33.6121 41.9713 35.0191 41.5229 36.1804 40.6725C37.3418 39.8221 38.1941 38.6162 38.6081 37.2377C39.0222 35.8591 38.9754 34.3831 38.4748 33.0336C40.1663 32.4184 41.6285 31.2996 42.6646 29.8279C43.7007 28.3562 44.2608 26.6023 44.2694 24.8025" fill="#EBF1F9"/>
<path d="M17.4641 20.7053L27.1303 25.1187L36.8864 16.5744C37.0269 15.8694 37.0966 15.152 37.0944 14.4332C37.0939 12.1058 36.3485 9.83972 34.9674 7.96648C33.5863 6.09324 31.6419 4.71118 29.4187 4.02255C27.1956 3.33391 24.8104 3.37486 22.6122 4.13938C20.414 4.90391 18.5182 6.35188 17.2022 8.27142L15.5771 16.6771L17.4641 20.7053Z" fill="#184E7F" fill-opacity="0.6"/>
<path d="M7.46011 30.9417C7.31758 31.6578 7.2462 32.3862 7.24702 33.1163C7.24706 35.4533 7.99623 37.7288 9.38457 39.6088C10.7729 41.4887 12.7273 42.8742 14.9609 43.5617C17.1945 44.2493 19.5897 44.2028 21.7949 43.4291C24.0002 42.6553 25.8993 41.1951 27.2136 39.2626L28.8234 30.875L26.6745 26.7671L16.9723 22.3461L7.46011 30.9417Z" fill="#184E7F" fill-opacity="0.6"/>
<path d="M7.40127 14.2151L14.0252 15.7787L15.4757 8.24594C14.5748 7.56278 13.4768 7.18984 12.3461 7.18296C11.2155 7.17607 10.113 7.53562 9.20385 8.20776C8.29466 8.8799 7.62765 9.82846 7.30269 10.9114C6.97774 11.9944 7.01232 13.1535 7.40127 14.2151Z" fill="#184E7F" fill-opacity="0.6"/>
<path d="M6.82535 15.7913C5.372 16.2817 4.10762 17.2129 3.20805 18.4553C2.30848 19.6976 1.81844 21.1895 1.80609 22.7233C1.80505 24.2057 2.25522 25.6532 3.09675 26.8736C3.93829 28.0939 5.13132 29.0292 6.51726 29.5551L15.8112 21.1546L14.1039 17.5089L6.82535 15.7913Z" fill="#184E7F" fill-opacity="0.6"/>
<path d="M28.9135 39.2616C29.813 39.9413 30.9082 40.3118 32.0356 40.3178C33.163 40.3238 34.2621 39.965 35.1687 39.2949C36.0754 38.6248 36.741 37.6794 37.0661 36.5999C37.3912 35.5203 37.3584 34.3646 36.9725 33.3053L30.3538 31.7648L28.9135 39.2616Z" fill="#184E7F" fill-opacity="0.6"/>
<path d="M30.2588 30.022L37.5451 31.7242C38.9993 31.2351 40.2645 30.3043 41.1643 29.0616C42.0641 27.8189 42.5535 26.3264 42.5644 24.7922C42.563 23.3129 42.112 21.8691 41.271 20.6521C40.4301 19.4352 39.239 18.5027 37.8558 17.9783L28.3256 26.3224L30.2588 30.022Z" fill="#184E7F" fill-opacity="0.6"/>
<path d="M61.8613 32.6662L62.7445 32.5763L62.8061 34.3735C60.8408 34.6703 58.8577 34.8332 56.8703 34.8613C54.6795 34.8613 53.1271 34.2271 52.2131 32.9589C51.2991 31.6906 50.8429 29.7171 50.8446 27.0384C50.8446 21.7034 52.9653 19.035 57.2066 19.0333C59.2606 19.0333 60.7924 19.6067 61.8023 20.7535C62.8121 21.9002 63.3187 23.6974 63.3222 26.145L63.2015 27.8806H53.1579C53.1579 29.5648 53.4625 30.8125 54.0719 31.6238C54.6812 32.4351 55.7407 32.8408 57.2503 32.8408C58.7633 32.8459 60.3003 32.7877 61.8613 32.6662ZM61.0398 26.0628C61.0398 24.1955 60.7411 22.8767 60.1437 22.1065C59.5464 21.3363 58.5725 20.9503 57.222 20.9486C55.8716 20.9486 54.8566 21.3542 54.1771 22.1655C53.4976 22.9768 53.1476 24.2759 53.1271 26.0628H61.0398Z" fill="#184E7F" fill-opacity="0.6"/>
<path d="M66.5057 34.7406V14.715H68.7882V34.7406H66.5057Z" fill="#184E7F" fill-opacity="0.6"/>
<path d="M83.1631 23.9319V31.6084C83.1631 32.3786 85.0578 32.3375 85.0578 32.3375L84.9423 34.3555C83.3377 34.3555 82.0103 34.489 81.2145 33.7162C79.4909 34.4817 77.624 34.8712 75.7382 34.8587C74.3398 34.8587 73.2744 34.4625 72.5418 33.67C71.8092 32.8776 71.4438 31.7385 71.4455 30.2528C71.4455 28.7706 71.8212 27.6794 72.5726 26.9794C73.324 26.2793 74.5007 25.8514 76.1028 25.6957L80.8807 25.2413V23.9319C80.8807 22.9049 80.6582 22.1638 80.2132 21.7085C79.9693 21.4796 79.6816 21.3025 79.3675 21.1878C79.0533 21.0731 78.7192 21.0231 78.3852 21.041H72.3878V19.0307H78.2337C79.959 19.0307 81.2119 19.427 81.9924 20.2194C82.7729 21.0119 83.1631 22.2494 83.1631 23.9319ZM73.7844 30.1399C73.7844 32.0072 74.5546 32.9409 76.0951 32.9409C77.4848 32.9393 78.8641 32.7023 80.1747 32.24L80.873 31.9961V26.9743L76.3775 27.4004C75.4635 27.4826 74.8037 27.7462 74.398 28.1912C73.9924 28.6362 73.7878 29.2858 73.7844 30.1399Z" fill="#184E7F" fill-opacity="0.6"/>
<path d="M92.0743 21.0718C89.8612 21.0718 88.7547 21.842 88.7547 23.3825C88.7547 24.0945 89.0114 24.5968 89.5249 24.8895C90.0384 25.1822 91.1945 25.4869 92.9934 25.8035C94.8009 26.1202 96.0794 26.5618 96.8291 27.1283C97.5788 27.6948 97.9545 28.7594 97.9562 30.3221C97.9562 31.8865 97.4538 33.0333 96.4491 33.7624C95.4444 34.4916 93.9785 34.857 92.0512 34.8587C90.7932 34.8587 86.5929 34.3915 86.5929 34.3915L86.7161 32.4146C89.1295 32.6456 90.8728 32.8176 92.0512 32.8176C93.2296 32.8176 94.1257 32.6302 94.7444 32.2554C95.3631 31.8805 95.6712 31.2515 95.6712 30.3683C95.6712 29.4852 95.4145 28.887 94.8805 28.5712C94.3465 28.2554 93.1963 27.9576 91.4119 27.6726C89.6276 27.3876 88.3567 26.9717 87.607 26.4248C86.8574 25.878 86.4799 24.8613 86.4799 23.3799C86.4799 21.8985 86.9934 20.8125 88.0486 20.0936C89.1038 19.3748 90.3978 19.0282 91.9588 19.0282C93.1963 19.0282 97.4915 19.344 97.4915 19.344V21.3337C95.2245 21.2336 93.3708 21.0718 92.0743 21.0718Z" fill="#184E7F" fill-opacity="0.6"/>
<path d="M108.958 21.3132H104.118V28.5891C104.118 30.3333 104.245 31.4792 104.498 32.0269C104.755 32.5763 105.356 32.8485 106.308 32.8485L109.017 32.6662L109.171 34.5532C108.145 34.7428 107.107 34.8552 106.064 34.8895C104.483 34.8895 103.387 34.5036 102.778 33.7316C102.169 32.9597 101.865 31.4886 101.866 29.3183V21.3132H99.715V19.3363H101.877V14.679H104.128V19.3363H108.958V21.3132Z" fill="#184E7F" fill-opacity="0.6"/>
<path d="M112.131 17.3928V14.7432H114.413V17.3928H112.131ZM112.131 34.7406V19.3363H114.413V34.7406H112.131Z" fill="#184E7F" fill-opacity="0.6"/>
<path d="M124.3 19.0307C125.44 19.0794 126.576 19.202 127.7 19.3979L128.429 19.4877L128.339 21.344C127.146 21.1928 125.946 21.102 124.745 21.0718C123.019 21.0718 121.848 21.4826 121.23 22.3042C120.612 23.1257 120.302 24.6473 120.3 26.869C120.3 29.0941 120.59 30.6414 121.168 31.5108C121.747 32.3803 122.953 32.8168 124.788 32.8202L128.383 32.5481L128.475 34.4351C127.076 34.6721 125.662 34.8145 124.244 34.8613C121.872 34.8613 120.234 34.252 119.33 33.0333C118.426 31.8147 117.974 29.7607 117.974 26.8716C117.974 23.9807 118.461 21.9516 119.435 20.7843C120.409 19.617 122.031 19.0325 124.3 19.0307Z" fill="#184E7F" fill-opacity="0.6"/>
</g>
<defs>
<clipPath id="clip0_2_235">
<rect width="128" height="48" fill="white" transform="translate(0.100037 0.754822)"/>
</clipPath>
</defs>
</svg>
