<svg width="25" height="25" viewBox="0 0 25 25" fill="none" xmlns="http://www.w3.org/2000/svg">
<path fill-rule="evenodd" clip-rule="evenodd" d="M9.80626 2.94775C8.99164 2.94775 8.25413 3.23852 7.65974 3.66274C6.90708 4.1781 6.50951 4.90622 6.25586 5.58659L6.24831 5.60684L6.24299 5.62778C6.04851 6.39286 6.04156 7.24745 6.31365 7.98178C6.51966 8.58687 6.84967 9.11776 7.30776 9.53093C6.99974 9.81032 6.70453 10.1494 6.50776 10.5716C6.24441 11.1367 6.11082 11.7085 6.11082 12.3477C6.11082 12.9869 6.24441 13.5587 6.50776 14.1238C6.7032 14.5432 6.96811 14.8858 7.2947 15.1764C6.84198 15.5891 6.51566 16.1176 6.31174 16.7193C6.04419 17.5087 6.0467 18.2955 6.24299 19.0677C6.44739 19.8718 6.92318 20.5224 7.58074 21.0186C8.20758 21.5377 9.02108 21.7477 9.74634 21.7477C10.7048 21.7477 11.6338 21.3101 12.347 20.684L12.3621 20.6708L12.3757 20.6561C13.0383 19.9452 13.4418 19.014 13.4418 18.0049V15.7254C13.9792 16.0452 14.5863 16.2191 15.1988 16.2191H15.2587C16.075 16.2191 16.8138 15.9272 17.4088 15.5016L17.4209 15.4929L17.4324 15.4834C18.0226 14.9908 18.4977 14.3436 18.7022 13.5391C18.8967 12.774 18.9009 11.9946 18.6407 11.2125C18.4811 10.4931 18.1242 9.94258 17.6965 9.53167C18.1564 9.11712 18.4873 8.58394 18.6933 7.97615C18.9609 7.18673 18.9584 6.39998 18.7621 5.62778C18.5576 4.82331 18.0825 4.17605 17.4923 3.68349C16.8644 3.15951 16.047 2.94775 15.3187 2.94775H9.80626ZM15.2587 4.84061C15.5852 4.84061 15.7744 4.84971 15.9085 4.92166L15.9238 4.92989L15.9398 4.93676C16.2256 5.05938 16.3762 5.1517 16.4887 5.31264L16.5214 5.35936L16.5658 5.3951C16.7149 5.51508 16.8043 5.68116 16.9211 5.99462C17.0295 6.28539 17.0757 6.49415 17.0757 6.75489C17.0757 7.03194 17.0232 7.29307 16.9334 7.48593C16.8372 7.69237 16.6919 7.90597 16.5214 8.1504C16.2996 8.32849 16.1079 8.47847 15.9243 8.57955C15.7146 8.6653 15.4981 8.66918 15.2587 8.66918H13.4418V4.84061H15.2587ZM8.60095 5.42048C8.88521 5.11549 9.32444 4.8992 9.77123 4.84061H11.5633V8.54061H9.74634C9.33187 8.54061 8.90645 8.34129 8.62085 7.9838L8.60169 7.95982L8.5791 7.93904C8.26663 7.65168 8.10916 7.19574 8.10916 6.69061C8.10916 6.21407 8.3099 5.73274 8.60095 5.42048ZM15.2587 10.4977C15.5852 10.4977 15.7744 10.5068 15.9085 10.5788L15.9238 10.587L15.9398 10.5939C16.2256 10.7165 16.3762 10.8088 16.4887 10.9697L16.5214 11.0165L16.5658 11.0522C16.7149 11.1722 16.8043 11.3383 16.9211 11.6517L16.9267 11.6666L16.9334 11.681C17.0232 11.8738 17.0757 12.1349 17.0757 12.412C17.0757 12.689 17.0232 12.9502 16.9334 13.143C16.8372 13.3495 16.6919 13.5631 16.5214 13.8075C16.3266 13.964 16.1549 14.0987 15.9915 14.1977H15.1988C14.7843 14.1977 14.3589 13.9984 14.0733 13.6409C13.7515 13.2381 13.5616 12.8092 13.5616 12.3477C13.5616 11.8712 13.7624 11.3898 14.0534 11.0776L14.0638 11.0664L14.0733 11.0545C14.3369 10.7246 14.7475 10.5581 15.2233 10.4977H15.2587ZM8.54103 11.0133C8.87291 10.6572 9.29935 10.4977 9.80626 10.4977H11.6232V14.1977H9.80626C9.33086 14.1977 8.88895 13.9961 8.53059 13.6709C8.18084 13.2903 7.98933 12.812 7.98933 12.3477C7.98933 11.8788 8.18465 11.3957 8.54103 11.0133ZM8.48369 16.5451C8.70545 16.367 8.8972 16.217 9.08081 16.1159C9.29052 16.0302 9.50699 16.0263 9.74634 16.0263H11.5633V17.9406C11.5633 18.4856 11.3607 18.9523 11.0335 19.2533L11.0221 19.2637L11.0116 19.275C10.6797 19.6311 10.2533 19.7906 9.74634 19.7906C9.41988 19.7906 9.23073 19.7815 9.0966 19.7095L9.08126 19.7013L9.06526 19.6944C8.77588 19.5702 8.60132 19.4682 8.48111 19.3393L8.46158 19.3183L8.43927 19.3004C8.29017 19.1804 8.20083 19.0143 8.08396 18.7008L8.07843 18.686L8.07173 18.6716C7.98185 18.4787 7.92941 18.2176 7.92941 17.9406C7.92941 17.6635 7.98185 17.4024 8.07173 17.2095C8.16793 17.0031 8.31314 16.7895 8.48369 16.5451Z" fill="#616161"/>
</svg>
