<svg width="136" height="49" viewBox="0 0 136 49" fill="none" xmlns="http://www.w3.org/2000/svg">
<g clip-path="url(#clip0_2_263)">
<path d="M0.500122 2.75421H29.6428V17.3255H15.0715L0.500122 2.75421ZM0.500122 17.3255H15.0715L29.6428 31.8969H0.500122V17.3255ZM0.500122 31.8969H15.0715V46.4682L0.500122 31.8969Z" fill="#184E7F" fill-opacity="0.6"/>
<path d="M46.0861 14.2496H57.8661V17.9929H50.5447V23.1949H57.8661V26.8556H50.5447V33.5162H46.0861V14.2496ZM60.2881 20.2496H64.4994V23.0296C64.7194 22.0742 65.1694 21.3409 65.8481 20.8276C66.5441 20.2949 67.3167 20.0296 68.1601 20.0296C68.6007 20.0296 68.9681 20.0669 69.2607 20.1396V24.0482C68.8407 23.9976 68.4181 23.9702 67.9947 23.9656C66.8387 23.9656 65.9681 24.3409 65.3801 25.0936C64.7941 25.8276 64.4994 26.9282 64.4994 28.3969V33.5162H60.2901V20.2496H60.2881ZM75.9087 33.8742C74.6247 33.8742 73.5047 33.5709 72.5507 32.9656C71.6147 32.3602 70.8707 31.5009 70.4041 30.4882C69.9087 29.4249 69.6594 28.2216 69.6594 26.8829C69.6594 25.5616 69.9181 24.3682 70.4314 23.3049C70.9127 22.2776 71.6767 21.4089 72.6334 20.8002C73.6047 20.1949 74.7154 19.8916 75.9641 19.8916C76.8994 19.8916 77.7354 20.0942 78.4687 20.4976C79.2021 20.9022 79.7527 21.4529 80.1201 22.1489V20.2496H84.3034V33.5162H80.1201V31.6442C79.7527 32.3049 79.1841 32.8456 78.4134 33.2682C77.6427 33.6769 76.7814 33.8849 75.9087 33.8742ZM77.1201 30.3782C78.1287 30.3782 78.9087 30.0482 79.4594 29.3876C80.0101 28.7269 80.2854 27.8916 80.2854 26.8829C80.2854 25.8922 80.0101 25.0662 79.4594 24.4056C78.9087 23.7449 78.1287 23.4149 77.1201 23.4149C76.1647 23.4149 75.3954 23.7356 74.8081 24.3782C74.2394 25.0209 73.9547 25.8549 73.9547 26.8829C73.9547 27.9109 74.2394 28.7542 74.8081 29.4149C75.3954 30.0576 76.1661 30.3782 77.1201 30.3782ZM87.2487 20.2496H91.4601V22.1762C91.7547 21.4962 92.2307 20.9456 92.8907 20.5249C93.5707 20.1042 94.3594 19.8916 95.258 19.8916C97.3501 19.8916 98.7361 20.7076 99.4141 22.3416C99.7874 21.6009 100.371 20.9882 101.093 20.5802C101.865 20.1156 102.752 19.8776 103.653 19.8916C106.791 19.8916 108.359 21.6889 108.359 25.2862V33.5162H104.121V26.0569C104.121 25.1589 103.955 24.4982 103.625 24.0756C103.295 23.6542 102.799 23.4422 102.139 23.4422C101.423 23.4422 100.873 23.6902 100.487 24.1856C100.102 24.6629 99.9094 25.4969 99.9094 26.6902V33.5162H95.6707V26.0296C95.6707 25.1309 95.5061 24.4789 95.1754 24.0756C94.8647 23.6542 94.3774 23.4422 93.718 23.4422C92.9834 23.4422 92.4234 23.6902 92.0381 24.1856C91.6527 24.6629 91.4601 25.4969 91.4601 26.6902V33.5162H87.2501V20.2496H87.2487ZM124.179 26.1949C124.179 26.7629 124.142 27.3782 124.067 28.0389H114.271C114.308 28.9016 114.601 29.5609 115.151 30.0209C115.702 30.4789 116.447 30.7089 117.381 30.7089C118.684 30.7089 119.51 30.3136 119.858 29.5249H123.987C123.784 30.8282 123.069 31.8822 121.839 32.6902C120.629 33.4789 119.142 33.8742 117.381 33.8742C115.106 33.8742 113.317 33.2589 112.013 32.0296C110.729 30.7996 110.087 29.0849 110.087 26.8829C110.087 25.4516 110.38 24.2129 110.967 23.1669C111.535 22.1222 112.409 21.2769 113.472 20.7449C114.555 20.1769 115.812 19.8916 117.245 19.8916C118.601 19.8916 119.803 20.1576 120.849 20.6902C121.913 21.2229 122.73 21.9656 123.298 22.9196C123.886 23.8749 124.179 24.9662 124.179 26.1949ZM120.021 25.4242C120.003 24.5436 119.756 23.8729 119.278 23.4149C118.802 22.9569 118.113 22.7269 117.214 22.7269C116.315 22.7269 115.6 22.9742 115.067 23.4702C114.554 23.9476 114.288 24.5982 114.269 25.4242H120.021ZM126.036 20.2496H130.247V23.0296C130.467 22.0742 130.917 21.3409 131.596 20.8276C132.255 20.3089 133.069 20.0276 133.908 20.0296C134.348 20.0296 134.716 20.0669 135.009 20.1396V24.0482C134.589 23.9976 134.166 23.9702 133.743 23.9656C132.587 23.9656 131.716 24.3409 131.128 25.0936C130.54 25.8276 130.247 26.9282 130.247 28.3969V33.5162H126.036V20.2496Z" fill="#184E7F" fill-opacity="0.6"/>
</g>
<defs>
<clipPath id="clip0_2_263">
<rect width="135" height="48" fill="white" transform="translate(0.5 0.754822)"/>
</clipPath>
</defs>
</svg>
