<svg width="25" height="25" viewBox="0 0 25 25" fill="none" xmlns="http://www.w3.org/2000/svg">
<path d="M15.7404 12.3483C15.7404 10.5483 14.3004 9.10829 12.5004 9.10829C10.7004 9.10829 9.26039 10.5483 9.26039 12.3483C9.26039 14.1483 10.7004 15.5883 12.5004 15.5883C14.3004 15.5883 15.7404 14.1483 15.7404 12.3483ZM17.4204 12.3483C17.4204 15.1083 15.2604 17.2683 12.5004 17.2683C9.74039 17.2683 7.58039 15.1083 7.58039 12.3483C7.58039 9.58829 9.74039 7.42829 12.5004 7.42829C15.2604 7.42829 17.4204 9.58829 17.4204 12.3483ZM18.7404 7.18829C18.7404 7.90829 18.2604 8.38829 17.5404 8.38829C16.8204 8.38829 16.3404 7.90829 16.3404 7.18829C16.3404 6.46829 16.8204 5.98829 17.5404 5.98829C18.2604 5.98829 18.7404 6.58829 18.7404 7.18829ZM12.5004 4.42829C11.0604 4.42829 8.06039 4.30829 6.86039 4.78829C6.02039 5.14829 5.30039 5.86829 5.06039 6.70829C4.58039 7.90829 4.70039 10.9083 4.70039 12.3483C4.70039 13.7883 4.58039 16.7883 5.06039 17.9883C5.30039 18.8283 6.02039 19.5483 6.86039 19.7883C8.06039 20.2683 11.1804 20.1483 12.5004 20.1483C13.8204 20.1483 16.9404 20.2683 18.1404 19.7883C18.9804 19.4283 19.5804 18.8283 19.9404 17.9883C20.4204 16.6683 20.3004 13.6683 20.3004 12.3483C20.3004 11.0283 20.4204 7.90829 19.9404 6.70829C19.7004 5.86829 18.9804 5.14829 18.1404 4.90829C16.9404 4.30829 13.9404 4.42829 12.5004 4.42829ZM22.1004 12.3483V16.3083C22.1004 17.7483 21.6204 19.1883 20.5404 20.3883C19.4604 21.4683 18.0204 21.9483 16.4604 21.9483H8.54039C7.10039 21.9483 5.66039 21.4683 4.46039 20.3883C3.50039 19.3083 2.90039 17.8683 2.90039 16.3083V8.38829C2.90039 6.82829 3.50039 5.38829 4.46039 4.30829C5.66039 3.34829 7.10039 2.74829 8.54039 2.74829H16.4604C17.9004 2.74829 19.3404 3.22829 20.5404 4.30829C21.5004 5.38829 22.1004 6.82829 22.1004 8.38829V12.3483Z" fill="#616161"/>
</svg>
