<svg width="25" height="25" viewBox="0 0 25 25" fill="none" xmlns="http://www.w3.org/2000/svg">
<path d="M8.06502 8.127C7.91878 7.98068 7.72415 7.90015 7.5171 7.90015H3.65225C3.4452 7.90015 3.25056 7.98068 3.10432 8.127C2.95803 8.27331 2.87744 8.46791 2.87744 8.67499V20.271C2.87744 20.4781 2.95803 20.6727 3.10432 20.819C3.25062 20.9653 3.4452 21.0459 3.65225 21.0459H7.5171C7.72415 21.0459 7.91878 20.9653 8.06502 20.819C8.21126 20.6728 8.2919 20.4781 8.2919 20.271V8.67499C8.2919 8.46791 8.21132 8.27331 8.06502 8.127ZM6.74229 9.4499V19.4961H4.42706V9.4499H6.74229Z" fill="#616161"/>
<path d="M8.0765 3.39549C8.00789 3.23436 7.92474 3.08153 7.82779 2.93794C7.73078 2.79441 7.61996 2.66013 7.49599 2.53615C6.98254 2.02257 6.3019 1.73975 5.5795 1.73975C5.21406 1.73975 4.85837 1.81237 4.52223 1.95557C4.20007 2.09281 3.91099 2.28813 3.663 2.53615C3.14949 3.04967 2.8667 3.73039 2.8667 4.45288C2.8667 4.81836 2.93932 5.17409 3.08249 5.51028C3.21971 5.83248 3.41502 6.1216 3.663 6.36962C4.17646 6.88319 4.85709 7.16596 5.5795 7.16596C5.94493 7.16596 6.30062 7.09339 6.63676 6.95019C6.95892 6.81296 7.24801 6.61763 7.49599 6.36962C8.0095 5.85609 8.29229 5.17537 8.29229 4.45288C8.29229 4.0874 8.21968 3.73167 8.0765 3.39549ZM5.58507 5.61064C5.42897 5.61064 5.27755 5.5799 5.13487 5.51924C4.99726 5.46076 4.87358 5.37716 4.76721 5.27084C4.6609 5.16446 4.57731 5.04076 4.51878 4.90307C4.45819 4.76044 4.42745 4.60894 4.42745 4.45288C4.42745 4.29682 4.45819 4.14533 4.51878 4.00263C4.57731 3.86501 4.6609 3.74131 4.76721 3.63493C4.87358 3.5286 4.99726 3.445 5.13493 3.38646C5.27755 3.32587 5.42897 3.29507 5.58507 3.29507C5.74116 3.29507 5.89258 3.32587 6.0352 3.38646C6.17287 3.445 6.29655 3.5286 6.40292 3.63493C6.50923 3.74131 6.59282 3.86501 6.65135 4.00263C6.71194 4.14533 6.74268 4.29676 6.74268 4.45288C6.74268 4.53091 6.735 4.60783 6.71974 4.68302C6.70448 4.75821 6.68165 4.83173 6.65135 4.90307C6.59282 5.04076 6.50923 5.16446 6.40292 5.27084C6.29655 5.37716 6.17287 5.46076 6.0352 5.51924C5.89258 5.5799 5.74116 5.61064 5.58507 5.61064Z" fill="#616161"/>
<path d="M22.4148 12.8194C22.3839 12.4385 22.3373 12.0899 22.2747 11.7681C22.2019 11.3945 22.1048 11.0458 21.9861 10.7318C21.8572 10.3906 21.6975 10.0762 21.5116 9.79725C21.3097 9.49449 21.0712 9.22442 20.8026 8.99467C20.5232 8.75573 20.2034 8.5535 19.852 8.39365C19.4951 8.23135 19.0948 8.10793 18.6623 8.02678C18.2261 7.94496 17.7427 7.90347 17.2254 7.90347C16.7695 7.90347 16.325 7.95515 15.9044 8.05713C15.5096 8.15287 15.1341 8.29312 14.7883 8.47407C14.6654 8.53785 14.5459 8.60658 14.4305 8.67965V8.67831C14.4305 8.47123 14.35 8.27663 14.2037 8.13032C14.0574 7.984 13.8628 7.90347 13.6557 7.90347H10.6047V7.89233H10.0916C9.88452 7.89233 9.68989 7.97286 9.54364 8.11918C9.39735 8.26549 9.31677 8.46009 9.31677 8.66717V20.2631C9.31677 20.4703 9.39735 20.6649 9.54364 20.8112C9.68994 20.9575 9.88452 21.038 10.0916 21.038H13.8061C14.0132 21.038 14.2078 20.9574 14.354 20.8112C14.5003 20.6649 14.5809 20.4703 14.5809 20.2631V14.6657C14.5809 14.2954 14.6014 13.9914 14.6436 13.7365C14.6908 13.4515 14.7635 13.2286 14.866 13.0552C14.9612 12.894 15.0856 12.7756 15.2463 12.6933C15.4466 12.5908 15.7134 12.5388 16.0392 12.5388C16.3231 12.5388 16.548 12.5914 16.7076 12.6952C16.8346 12.7779 16.9311 12.9005 17.0026 13.0698L17.0034 13.072C17.0848 13.2644 17.1385 13.5131 17.1677 13.8324C17.1947 14.1276 17.1969 14.4298 17.1969 14.7659V20.2687C17.1969 20.4758 17.2774 20.6704 17.4237 20.8168C17.57 20.963 17.7646 21.0436 17.9717 21.0436H21.6862C21.8932 21.0436 22.0878 20.963 22.2341 20.8168C22.3804 20.6704 22.461 20.4758 22.461 20.2687V14.0641C22.461 13.6134 22.4457 13.2003 22.4148 12.8194ZM18.7023 13.6582C18.6576 13.1971 18.5679 12.8114 18.4283 12.4794C18.3829 12.3707 18.3321 12.2673 18.2764 12.1697C18.2207 12.0722 18.1599 11.9805 18.0946 11.8955C17.9486 11.7052 17.7758 11.5424 17.5809 11.4116C17.3757 11.2739 17.1419 11.1689 16.8862 11.0996C16.6289 11.0299 16.342 10.9946 16.0337 10.9946C15.4586 10.9946 14.9551 11.1022 14.5374 11.3145C14.1143 11.5295 13.7736 11.8539 13.5248 12.2788C13.3317 12.609 13.1989 12.9912 13.1184 13.4473C13.0561 13.8014 13.0257 14.2035 13.0257 14.6768V19.4994H10.8664V9.45322H12.8754V10.5051C12.8754 10.7122 12.9559 10.9069 13.1022 11.0532C13.2485 11.1994 13.4431 11.28 13.6502 11.28H13.7003C13.842 11.28 13.9808 11.2413 14.1016 11.1679C14.2142 11.0995 14.3084 11.0027 14.3742 10.8876L14.3757 10.8848C14.4814 10.6969 14.6297 10.5092 14.8046 10.3421C15.0041 10.1512 15.2366 9.98645 15.4958 9.85234L15.4986 9.85089C15.7355 9.72613 15.9946 9.62916 16.2688 9.56266C16.5682 9.49003 16.8882 9.45322 17.2199 9.45322C17.6261 9.45322 18.0002 9.48357 18.3319 9.54344C18.6421 9.59953 18.924 9.68296 19.1697 9.79163C19.3979 9.89249 19.6026 10.0187 19.7783 10.1667C19.9451 10.3072 20.0928 10.4735 20.2175 10.6611C20.3423 10.8489 20.451 11.0671 20.5405 11.3095C20.6278 11.5462 20.7001 11.8146 20.7552 12.1075C20.8565 12.6452 20.9058 13.287 20.9058 14.0697V19.4994H18.7409V14.7715C18.7409 14.3803 18.738 14.0266 18.7023 13.6582Z" fill="#616161"/>
</svg>
