<svg width="25" height="25" viewBox="0 0 25 25" fill="none" xmlns="http://www.w3.org/2000/svg">
<path d="M2.90283 8.54844C2.90283 7.22281 3.97721 6.14844 5.30283 6.14844H19.7028C21.0265 6.14844 22.1028 7.22281 22.1028 8.54844V18.1484C22.1028 19.4721 21.0265 20.5484 19.7028 20.5484H5.30283C3.97721 20.5484 2.90283 19.4721 2.90283 18.1484V8.54844ZM4.10283 8.54844V10.0447L11.4378 15.4221C12.0715 15.8871 12.934 15.8871 13.5678 15.4221L20.9028 10.0447V8.54844C20.9028 7.88469 20.3665 7.34844 19.7028 7.34844H5.26908C4.64021 7.34844 4.06908 7.88469 4.06908 8.54844H4.10283ZM4.10283 11.5334V18.1484C4.10283 18.8121 4.64021 19.3484 5.30283 19.3484H19.7028C20.3665 19.3484 20.9028 18.8121 20.9028 18.1484V11.5334L14.2765 16.3896C13.219 17.1659 11.7865 17.1659 10.729 16.3896L4.10283 11.5334Z" fill="#616161" stroke="#616161" stroke-width="0.5"/>
</svg>
