<svg width="135" height="49" viewBox="0 0 135 49" fill="none" xmlns="http://www.w3.org/2000/svg">
<g clip-path="url(#clip0_2_245)">
<path fill-rule="evenodd" clip-rule="evenodd" d="M15.0838 22.6189C15.0838 15.7116 13.9244 12.8483 10.737 12.8483C7.92584 12.8483 6.50588 14.8555 6.50588 21.8221C6.50588 28.6996 7.6071 31.5337 10.8528 31.5337C13.7217 31.5337 15.0838 29.5557 15.0838 22.6189ZM1 22.4419C1 14.6783 6.24505 11.6086 10.911 11.6086C15.8952 11.6086 20.5896 14.6491 20.5896 21.9695C20.5896 29.7919 15.3446 32.7734 10.6787 32.7734C5.69466 32.7734 1 29.5264 1 22.4419Z" fill="#184E7F" fill-opacity="0.6"/>
<path fill-rule="evenodd" clip-rule="evenodd" d="M44.1914 22.9436L49.1467 22.6779C49.1467 19.1063 48.6834 17.8074 46.9444 17.8074C45.4663 17.8074 44.3072 19.2243 44.1914 22.9436ZM39.6128 24.6852C39.6128 19.549 43.3508 16.6856 47.1761 16.6856C51.1286 16.6856 53.609 18.6748 53.7502 23.8788C53.7531 23.98 53.6722 24.0653 53.5725 24.0653H44.3734C44.2736 24.0653 44.1929 24.1507 44.1954 24.2521C44.325 28.9409 46.1136 30.2348 49.0598 30.2348C50.4978 30.2348 51.6571 29.8945 52.6274 29.4562C52.6989 29.4237 52.7817 29.4428 52.8327 29.5036L53.2181 29.9653C53.2762 30.0349 53.2756 30.1379 53.2141 30.2042C52.157 31.3398 50.0049 32.7735 47.1761 32.7735C42.1337 32.7735 39.6128 29.7035 39.6128 24.6852Z" fill="#184E7F" fill-opacity="0.6"/>
<path fill-rule="evenodd" clip-rule="evenodd" d="M99.2864 24.9214C99.2864 18.9586 98.1565 17.8369 96.1857 17.8369C94.3599 17.8369 93.2878 19.1948 93.2878 24.2721C93.2878 30.3236 94.2441 31.622 96.3594 31.622C98.0985 31.622 99.2864 30.589 99.2864 24.9214ZM88.4194 24.7739C88.4194 19.1061 92.3604 16.6857 96.2728 16.6857C100.475 16.6857 104.155 19.2538 104.155 24.6262C104.155 30.2938 100.272 32.7737 96.2728 32.7737C92.0708 32.7737 88.4194 30.1756 88.4194 24.7739Z" fill="#184E7F" fill-opacity="0.6"/>
<path fill-rule="evenodd" clip-rule="evenodd" d="M116.571 24.9214C116.571 18.9586 115.441 17.8369 113.471 17.8369C111.645 17.8369 110.573 19.1948 110.573 24.2721C110.573 30.3236 111.529 31.622 113.645 31.622C115.383 31.622 116.571 30.589 116.571 24.9214ZM105.704 24.7739C105.704 19.1061 109.645 16.6857 113.557 16.6857C117.759 16.6857 121.44 19.2538 121.44 24.6262C121.44 30.2938 117.557 32.7737 113.557 32.7737C109.356 32.7737 105.704 30.1756 105.704 24.7739Z" fill="#184E7F" fill-opacity="0.6"/>
<path fill-rule="evenodd" clip-rule="evenodd" d="M65.6631 16.6857C63.5478 16.6857 61.6351 17.6599 60.0993 18.7814H59.9833L60.0403 16.9203C60.0447 16.7776 59.924 16.6643 59.785 16.6802L55.7299 17.1485C55.6107 17.1621 55.5205 17.2647 55.5205 17.387V32.1852C55.5205 32.3145 55.6234 32.4191 55.7501 32.4191H59.8984C60.0251 32.4191 60.128 32.3145 60.128 32.1852V19.8147C60.7655 19.667 61.8088 19.431 62.8234 19.431C64.1852 19.431 64.8229 19.9919 64.8229 21.7924V32.1852C64.8229 32.3145 64.9258 32.4191 65.0526 32.4191H69.2298C69.3566 32.4191 69.4597 32.3145 69.4597 32.1852V20.6414C69.4597 17.9846 68.1266 16.6857 65.6631 16.6857Z" fill="#184E7F" fill-opacity="0.6"/>
<path fill-rule="evenodd" clip-rule="evenodd" d="M81.8919 29.7919C81.4282 29.9691 80.6457 30.4415 79.4576 30.4415C77.2551 30.4415 76.096 28.9359 76.096 24.3015C76.096 19.4307 77.5449 17.8664 79.6313 17.8664C80.7038 17.8664 81.3992 18.4862 81.8919 19.1061V29.7919ZM86.4995 13.7929C86.4995 12.267 86.5505 10.8651 86.5774 10.2897C86.5852 10.1214 86.4449 9.98616 86.2803 10.0011L82.1066 10.4839C81.985 10.4951 81.8919 10.5988 81.8919 10.7233V14.8556C81.8919 15.9181 81.9498 17.0103 81.9498 17.0103C81.3413 16.8331 80.5298 16.6856 79.7476 16.6856C75.2267 16.6856 71.3432 19.1358 71.3432 25.2758C71.3432 30.648 74.1542 32.7735 77.0233 32.7735C79.0518 32.7735 80.6746 31.9469 81.9209 30.8549H82.0367L81.9779 32.4842C81.9712 32.6577 82.12 32.795 82.2886 32.7707L86.2645 32.3185C86.3992 32.2995 86.4995 32.182 86.4995 32.0433V13.7929Z" fill="#184E7F" fill-opacity="0.6"/>
<path fill-rule="evenodd" clip-rule="evenodd" d="M132.209 16.6857C130.529 16.6857 128.877 17.9846 127.979 18.9586H127.863L127.919 16.9749C127.924 16.8061 127.781 16.6718 127.616 16.6907L123.609 17.1487C123.49 17.1624 123.4 17.2649 123.4 17.3874V32.1414C123.4 32.2947 123.522 32.4191 123.673 32.4191H127.735C127.885 32.4191 128.008 32.2947 128.008 32.1414V20.169C128.413 19.7852 129.08 19.4013 129.601 19.4013C129.862 19.4013 130.036 19.4605 130.21 19.7852C130.761 20.7002 131.196 21.2291 132.441 21.2291C133.572 21.2291 134.582 20.3165 134.582 18.8996C134.582 17.453 133.6 16.6857 132.209 16.6857Z" fill="#184E7F" fill-opacity="0.6"/>
<path fill-rule="evenodd" clip-rule="evenodd" d="M29.65 31.5926C28.6646 31.5926 27.8824 31.1497 27.3605 30.5299V19.785C27.8242 19.6081 28.5488 19.2537 29.7079 19.2537C31.9104 19.2537 33.1566 20.7296 33.1566 24.9508C33.1566 30.3529 31.9393 31.5926 29.65 31.5926ZM32.2291 16.6858C30.2004 16.6858 28.578 17.6598 27.3605 18.7225H27.2157L27.2716 16.9562C27.2768 16.7954 27.1404 16.6672 26.9836 16.6853L22.9623 17.1484C22.8429 17.1622 22.7529 17.265 22.7529 17.3873V38.7615C22.7529 38.9047 22.8752 39.0163 23.0151 39.0002L27.1514 38.5242C27.2705 38.5106 27.3605 38.4078 27.3605 38.2855V34.279C27.3605 33.2459 27.3318 32.4784 27.3318 32.4784C27.9692 32.6554 28.9257 32.7733 29.5342 32.7733C34.3737 32.7733 37.909 30.0872 37.909 23.9473C37.909 18.5453 34.9822 16.6858 32.2291 16.6858Z" fill="#184E7F" fill-opacity="0.6"/>
</g>
<defs>
<clipPath id="clip0_2_245">
<rect width="134" height="48" fill="white" transform="translate(0.700195 0.754822)"/>
</clipPath>
</defs>
</svg>
