<svg width="25" height="25" viewBox="0 0 25 25" fill="none" xmlns="http://www.w3.org/2000/svg">
<g clip-path="url(#clip0_2_1224)">
<path fill-rule="evenodd" clip-rule="evenodd" d="M12.0725 7.86184C12.0725 5.09864 14.3125 2.85864 17.0757 2.85864C18.6981 2.85864 19.9925 3.62504 20.8597 4.73864C21.777 4.55063 22.6563 4.21047 23.4613 3.73224C23.1496 4.70217 22.497 5.52634 21.6245 6.05224L21.6277 6.05704C22.456 5.95696 23.2649 5.73425 24.0277 5.39624L24.0261 5.39944C23.4869 6.20744 22.8101 6.91944 22.0293 7.50024C22.0709 7.78344 22.0933 8.06664 22.0933 8.34824C22.0933 14.2474 17.5989 21.1082 9.33329 21.1082C6.89602 21.1103 4.50971 20.4104 2.45969 19.0922C2.36318 19.0303 2.28111 18.9483 2.21905 18.8518C2.157 18.7554 2.1164 18.6468 2.10001 18.5333C2.08362 18.4198 2.09183 18.3041 2.12407 18.194C2.15631 18.0839 2.21184 17.9821 2.28689 17.8954C2.35826 17.7767 2.46233 17.6812 2.58662 17.6202C2.71092 17.5592 2.85017 17.5353 2.98769 17.5514C4.45329 17.7242 5.91569 17.545 7.20689 16.9818C6.57003 16.7004 5.99987 16.2875 5.53385 15.7702C5.06784 15.2529 4.7165 14.6429 4.50289 13.9802C4.4634 13.8569 4.45786 13.7253 4.48686 13.5992C4.51586 13.473 4.57833 13.357 4.66769 13.2634C4.14187 12.8019 3.72068 12.2335 3.43233 11.5961C3.14398 10.9587 2.99511 10.267 2.99569 9.56744V9.51304C2.99565 9.34565 3.05394 9.18349 3.16052 9.05442C3.2671 8.92535 3.41532 8.83746 3.57969 8.80584C3.21694 8.1058 3.02815 7.32868 3.02929 6.54024C3.02929 5.79144 3.03409 4.84744 3.56049 3.99624C3.61673 3.90606 3.69224 3.82946 3.78159 3.77192C3.87094 3.71438 3.97193 3.67733 4.07729 3.66344C4.23007 3.61525 4.3938 3.61405 4.54727 3.65998C4.70075 3.7059 4.8369 3.79685 4.93809 3.92104C6.72165 6.1151 9.27264 7.54903 12.0741 7.93224V7.86184H12.0725ZM9.33329 19.5082C8.10912 19.5091 6.89323 19.3074 5.73489 18.9114C7.12815 18.6816 8.44231 18.1086 9.55889 17.2442C9.67591 17.1524 9.76164 17.0266 9.80428 16.8841C9.84693 16.7417 9.8444 16.5895 9.79706 16.4485C9.74971 16.3075 9.65986 16.1846 9.53986 16.0968C9.41986 16.0089 9.2756 15.9604 9.12689 15.9578C8.59123 15.9482 8.06504 15.8149 7.58935 15.5685C7.11365 15.322 6.70132 14.969 6.38449 14.537C6.68849 14.513 6.98609 14.4602 7.27409 14.3834C7.43109 14.3414 7.56926 14.2476 7.66616 14.1171C7.76305 13.9867 7.81296 13.8272 7.80777 13.6648C7.80258 13.5024 7.74259 13.3465 7.63756 13.2225C7.53254 13.0985 7.38865 13.0137 7.22929 12.9818C6.62058 12.8585 6.05584 12.5749 5.59342 12.1603C5.131 11.7456 4.78766 11.2151 4.59889 10.6234C4.91889 10.7002 5.25329 10.7466 5.59569 10.7578C5.75216 10.7631 5.90609 10.7172 6.03414 10.6271C6.16219 10.537 6.2574 10.4077 6.30533 10.2587C6.35326 10.1096 6.35131 9.94904 6.29976 9.8012C6.24822 9.65337 6.1499 9.52637 6.01969 9.43944C5.54225 9.12137 5.15077 8.6903 4.88002 8.18452C4.60926 7.67874 4.46763 7.11392 4.46769 6.54024C4.46769 6.27144 4.47249 6.03304 4.48849 5.81544C6.72733 8.10022 9.74482 9.45758 12.9397 9.61704C13.0631 9.62331 13.1862 9.60093 13.2995 9.55165C13.4128 9.50237 13.5131 9.42752 13.5926 9.33298C13.6721 9.23844 13.7286 9.12676 13.7578 9.00672C13.7869 8.88667 13.7878 8.76151 13.7605 8.64104C13.643 8.14144 13.64 7.62174 13.7517 7.12082C13.8635 6.6199 14.0871 6.15075 14.4058 5.74847C14.7245 5.34619 15.1301 5.02121 15.5922 4.79784C16.0542 4.57448 16.5609 4.45852 17.0741 4.45864C19.0485 4.45864 20.4917 6.28744 20.4917 8.34984C20.4917 13.5594 16.5317 19.5082 9.33329 19.5082Z" fill="#616161"/>
</g>
<defs>
<clipPath id="clip0_2_1224">
<rect width="24" height="24" fill="white" transform="translate(0.499512 0.348389)"/>
</clipPath>
</defs>
</svg>
