<svg width="25" height="25" viewBox="0 0 25 25" fill="none" xmlns="http://www.w3.org/2000/svg">
<g clip-path="url(#clip0_2_1226)">
<path d="M16.2561 11.6624L11.3061 8.36235C11.1818 8.27944 11.0374 8.23182 10.8881 8.22459C10.7389 8.21737 10.5905 8.25079 10.4589 8.3213C10.3271 8.39181 10.2171 8.49677 10.1403 8.62496C10.0636 8.75315 10.0231 8.89977 10.0232 9.04916V15.6492C10.0231 15.7986 10.0636 15.9452 10.1403 16.0734C10.2171 16.2016 10.3271 16.3065 10.4589 16.377C10.5905 16.4476 10.7389 16.481 10.8881 16.4738C11.0374 16.4665 11.1818 16.4189 11.3061 16.336L16.2561 13.036C16.3693 12.9607 16.4621 12.8586 16.5262 12.7388C16.5904 12.6189 16.624 12.4851 16.624 12.3492C16.624 12.2133 16.5904 12.0794 16.5262 11.9596C16.4621 11.8398 16.3693 11.7377 16.2561 11.6624ZM11.6732 14.1075V10.5961L14.3112 12.3492L11.6732 14.1075ZM23.4635 6.31841C23.3663 5.93824 23.1802 5.58662 22.9203 5.29256C22.6605 4.9985 22.3345 4.77043 21.9692 4.62716C18.4341 3.26179 12.8076 3.27417 12.4982 3.27417C12.1888 3.27417 6.56236 3.26179 3.02724 4.62716C2.66193 4.77043 2.33592 4.9985 2.07611 5.29256C1.8163 5.58662 1.63013 5.93824 1.53296 6.31841C1.26587 7.3476 0.948242 9.2286 0.948242 12.3492C0.948242 15.4697 1.26587 17.3507 1.53296 18.3799C1.62998 18.7603 1.81609 19.1121 2.07591 19.4064C2.33573 19.7006 2.66181 19.9288 3.02724 20.0722C6.41386 21.3788 11.7145 21.4242 12.4302 21.4242H12.5663C13.282 21.4242 18.5857 21.3788 21.9692 20.0722C22.3346 19.9288 22.6607 19.7006 22.9205 19.4064C23.1804 19.1121 23.3665 18.7603 23.4635 18.3799C23.7306 17.3487 24.0482 15.4697 24.0482 12.3492C24.0482 9.2286 23.7306 7.3476 23.4635 6.31841ZM21.8661 17.9716C21.8347 18.0981 21.7737 18.2154 21.6882 18.3138C21.6027 18.4122 21.4951 18.4889 21.3742 18.5377C18.1103 19.7979 12.5591 19.7752 12.5054 19.7752H12.4982C12.4425 19.7752 6.89546 19.7958 3.62949 18.5377C3.5086 18.4889 3.40099 18.4122 3.31548 18.3138C3.22998 18.2154 3.16901 18.0981 3.13758 17.9716C2.88699 17.03 2.59824 15.2955 2.59824 12.3492C2.59824 9.40288 2.88699 7.66832 3.13036 6.73195C3.16121 6.60467 3.22191 6.48657 3.30745 6.3874C3.39298 6.28823 3.5009 6.21086 3.62227 6.16166C6.76965 4.94582 12.0434 4.92416 12.4755 4.92416H12.5034C12.5591 4.92416 18.1113 4.9056 21.3721 6.16166C21.493 6.21046 21.6006 6.2872 21.6861 6.38561C21.7716 6.48402 21.8326 6.6013 21.864 6.72782C22.1095 7.66832 22.3982 9.40288 22.3982 12.3492C22.3982 15.2955 22.1095 17.03 21.8661 17.9664V17.9716Z" fill="#616161"/>
</g>
<defs>
<clipPath id="clip0_2_1226">
<rect width="24" height="24" fill="white" transform="translate(0.500488 0.348389)"/>
</clipPath>
</defs>
</svg>
