<svg width="9" height="9" viewBox="0 0 9 9" fill="none" xmlns="http://www.w3.org/2000/svg">
<path d="M8.94 4.21367C8.9043 4.12161 8.85078 4.0375 8.7825 3.96617L5.0325 0.216174C4.96257 0.146245 4.87955 0.0907749 4.78819 0.0529296C4.69682 0.0150844 4.59889 -0.00439453 4.5 -0.00439453C4.30027 -0.00439453 4.10873 0.0749465 3.9675 0.216174C3.89757 0.286103 3.8421 0.369121 3.80426 0.460487C3.76641 0.551854 3.74693 0.64978 3.74693 0.748674C3.74693 0.948401 3.82627 1.13995 3.9675 1.28117L6.4425 3.74867H0.75C0.551088 3.74867 0.360322 3.82769 0.21967 3.96834C0.0790178 4.109 0 4.29976 0 4.49867C0 4.69759 0.0790178 4.88835 0.21967 5.029C0.360322 5.16966 0.551088 5.24867 0.75 5.24867H6.4425L3.9675 7.71618C3.8972 7.7859 3.84141 7.86885 3.80333 7.96024C3.76526 8.05164 3.74565 8.14967 3.74565 8.24867C3.74565 8.34768 3.76526 8.44571 3.80333 8.53711C3.84141 8.6285 3.8972 8.71145 3.9675 8.78117C4.03722 8.85147 4.12017 8.90727 4.21157 8.94534C4.30296 8.98342 4.40099 9.00302 4.5 9.00302C4.59901 9.00302 4.69704 8.98342 4.78843 8.94534C4.87983 8.90727 4.96278 8.85147 5.0325 8.78117L8.7825 5.03117C8.85078 4.95985 8.9043 4.87574 8.94 4.78367C9.01501 4.60108 9.01501 4.39627 8.94 4.21367Z" fill="white"/>
</svg>
