<svg width="475" height="425" viewBox="0 0 475 425" fill="none" xmlns="http://www.w3.org/2000/svg">
<g clip-path="url(#clip0_2_488)">
<path opacity="0.9" d="M158.001 115.399H475.001L449.975 218.285H182.333L158.001 115.399Z" fill="#629DD4"/>
<path opacity="0.9" d="M194.15 218.285H438.852L419.534 321.171H212.932L194.15 218.285Z" fill="#256CB5"/>
<path opacity="0.9" d="M223.348 321.171H409.655L391.946 424.057H240.648L223.348 321.171Z" fill="#184E7F"/>
<path d="M181.667 187.807C181.667 190.753 184.055 193.14 187 193.14C189.946 193.14 192.334 190.753 192.334 187.807C192.334 184.862 189.946 182.474 187 182.474C184.055 182.474 181.667 184.862 181.667 187.807ZM100.667 187.807C100.667 190.753 103.055 193.14 106 193.14C108.946 193.14 111.334 190.753 111.334 187.807C111.334 184.862 108.946 182.474 106 182.474C103.055 182.474 100.667 184.862 100.667 187.807ZM187 186.807H106V188.807H187V186.807Z" fill="#184E7F"/>
<path d="M219.667 283.807C219.667 286.753 222.055 289.14 225 289.14C227.946 289.14 230.334 286.753 230.334 283.807C230.334 280.862 227.946 278.474 225 278.474C222.055 278.474 219.667 280.862 219.667 283.807ZM100.667 283.807C100.667 286.753 103.055 289.14 106 289.14C108.946 289.14 111.334 286.753 111.334 283.807C111.334 280.862 108.946 278.474 106 278.474C103.055 278.474 100.667 280.862 100.667 283.807ZM225 282.807H106V284.807H225V282.807Z" fill="#184E7F"/>
<path d="M246.667 372.807C246.667 375.753 249.055 378.14 252.001 378.14C254.946 378.14 257.334 375.753 257.334 372.807C257.334 369.862 254.946 367.474 252.001 367.474C249.055 367.474 246.667 369.862 246.667 372.807ZM100.667 372.807C100.667 375.753 103.055 378.14 106 378.14C108.946 378.14 111.334 375.753 111.334 372.807C111.334 369.862 108.946 367.474 106 367.474C103.055 367.474 100.667 369.862 100.667 372.807ZM252.001 371.807H106V373.807H252.001V371.807Z" fill="#184E7F"/>
<path d="M5.52655 196.951C4.59055 196.951 3.76855 196.771 3.06055 196.411C2.35255 196.039 1.80655 195.523 1.42255 194.863C1.03855 194.203 0.84655 193.441 0.84655 192.577V188.419C0.84655 187.555 1.03855 186.793 1.42255 186.133C1.80655 185.473 2.35255 184.963 3.06055 184.603C3.76855 184.243 4.59055 184.063 5.52655 184.063C6.45055 184.063 7.26055 184.237 7.95655 184.585C8.66455 184.921 9.21055 185.407 9.59455 186.043C9.99055 186.667 10.1886 187.393 10.1886 188.221C10.1886 188.329 10.1166 188.395 9.97255 188.419L7.86655 188.545H7.83055C7.71055 188.545 7.65055 188.479 7.65055 188.347C7.65055 187.711 7.45255 187.201 7.05655 186.817C6.67255 186.433 6.16255 186.241 5.52655 186.241C4.87855 186.241 4.35655 186.433 3.96055 186.817C3.57655 187.201 3.38455 187.711 3.38455 188.347V192.685C3.38455 193.309 3.57655 193.813 3.96055 194.197C4.35655 194.581 4.87855 194.773 5.52655 194.773C6.16255 194.773 6.67255 194.581 7.05655 194.197C7.45255 193.813 7.65055 193.309 7.65055 192.685C7.65055 192.553 7.72255 192.487 7.86655 192.487L9.97255 192.577C10.0326 192.577 10.0806 192.595 10.1166 192.631C10.1646 192.667 10.1886 192.709 10.1886 192.757C10.1886 193.585 9.99055 194.317 9.59455 194.953C9.21055 195.589 8.66455 196.081 7.95655 196.429C7.26055 196.777 6.45055 196.951 5.52655 196.951ZM19.7785 196.807C19.6585 196.807 19.5805 196.747 19.5445 196.627L19.0045 194.863C18.9805 194.815 18.9505 194.791 18.9145 194.791H14.4865C14.4505 194.791 14.4205 194.815 14.3965 194.863L13.8745 196.627C13.8385 196.747 13.7605 196.807 13.6405 196.807H11.3545C11.2825 196.807 11.2285 196.789 11.1925 196.753C11.1565 196.705 11.1505 196.639 11.1745 196.555L15.0625 184.387C15.0985 184.267 15.1765 184.207 15.2965 184.207H18.1225C18.2425 184.207 18.3205 184.267 18.3565 184.387L22.2445 196.555C22.2565 196.579 22.2625 196.609 22.2625 196.645C22.2625 196.753 22.1965 196.807 22.0645 196.807H19.7785ZM15.0445 192.721C15.0325 192.793 15.0565 192.829 15.1165 192.829H18.2845C18.3565 192.829 18.3805 192.793 18.3565 192.721L16.7365 187.375C16.7245 187.327 16.7065 187.309 16.6825 187.321C16.6585 187.321 16.6405 187.339 16.6285 187.375L15.0445 192.721ZM29.0466 184.189C29.8386 184.189 30.5346 184.351 31.1346 184.675C31.7346 184.999 32.1966 185.461 32.5206 186.061C32.8566 186.649 33.0246 187.327 33.0246 188.095C33.0246 188.851 32.8506 189.517 32.5026 190.093C32.1666 190.669 31.6866 191.119 31.0626 191.443C30.4506 191.755 29.7426 191.911 28.9386 191.911H26.3826C26.3226 191.911 26.2926 191.941 26.2926 192.001V196.591C26.2926 196.651 26.2686 196.705 26.2206 196.753C26.1846 196.789 26.1366 196.807 26.0766 196.807H23.9706C23.9106 196.807 23.8566 196.789 23.8086 196.753C23.7726 196.705 23.7546 196.651 23.7546 196.591V184.405C23.7546 184.345 23.7726 184.297 23.8086 184.261C23.8566 184.213 23.9106 184.189 23.9706 184.189H29.0466ZM28.6686 189.877C29.2206 189.877 29.6646 189.721 30.0006 189.409C30.3366 189.085 30.5046 188.665 30.5046 188.149C30.5046 187.621 30.3366 187.195 30.0006 186.871C29.6646 186.547 29.2206 186.385 28.6686 186.385H26.3826C26.3226 186.385 26.2926 186.415 26.2926 186.475V189.787C26.2926 189.847 26.3226 189.877 26.3826 189.877H28.6686ZM43.2789 184.207C43.3389 184.207 43.3869 184.231 43.4229 184.279C43.4709 184.315 43.4949 184.363 43.4949 184.423V186.187C43.4949 186.247 43.4709 186.301 43.4229 186.349C43.3869 186.385 43.3389 186.403 43.2789 186.403H40.0569C39.9969 186.403 39.9669 186.433 39.9669 186.493V196.591C39.9669 196.651 39.9429 196.705 39.8949 196.753C39.8589 196.789 39.8109 196.807 39.7509 196.807H37.6449C37.5849 196.807 37.5309 196.789 37.4829 196.753C37.4469 196.705 37.4289 196.651 37.4289 196.591V186.493C37.4289 186.433 37.3989 186.403 37.3389 186.403H34.2069C34.1469 186.403 34.0929 186.385 34.0449 186.349C34.0089 186.301 33.9909 186.247 33.9909 186.187V184.423C33.9909 184.363 34.0089 184.315 34.0449 184.279C34.0929 184.231 34.1469 184.207 34.2069 184.207H43.2789ZM49.6862 196.951C48.7622 196.951 47.9462 196.771 47.2382 196.411C46.5422 196.051 45.9962 195.547 45.6002 194.899C45.2162 194.239 45.0242 193.483 45.0242 192.631V184.423C45.0242 184.363 45.0422 184.315 45.0782 184.279C45.1262 184.231 45.1802 184.207 45.2402 184.207H47.3462C47.4062 184.207 47.4542 184.231 47.4902 184.279C47.5382 184.315 47.5622 184.363 47.5622 184.423V192.649C47.5622 193.285 47.7542 193.801 48.1382 194.197C48.5342 194.581 49.0502 194.773 49.6862 194.773C50.3222 194.773 50.8322 194.581 51.2162 194.197C51.6122 193.801 51.8102 193.285 51.8102 192.649V184.423C51.8102 184.363 51.8282 184.315 51.8642 184.279C51.9122 184.231 51.9662 184.207 52.0262 184.207H54.1322C54.1922 184.207 54.2402 184.231 54.2762 184.279C54.3242 184.315 54.3482 184.363 54.3482 184.423V192.631C54.3482 193.483 54.1502 194.239 53.7542 194.899C53.3702 195.547 52.8242 196.051 52.1162 196.411C51.4202 196.771 50.6102 196.951 49.6862 196.951ZM63.3465 196.807C63.2265 196.807 63.1425 196.753 63.0945 196.645L60.8445 191.659C60.8205 191.611 60.7845 191.587 60.7365 191.587H59.0625C59.0025 191.587 58.9725 191.617 58.9725 191.677V196.591C58.9725 196.651 58.9485 196.705 58.9005 196.753C58.8645 196.789 58.8165 196.807 58.7565 196.807H56.6505C56.5905 196.807 56.5365 196.789 56.4885 196.753C56.4525 196.705 56.4345 196.651 56.4345 196.591V184.423C56.4345 184.363 56.4525 184.315 56.4885 184.279C56.5365 184.231 56.5905 184.207 56.6505 184.207H61.7985C62.5665 184.207 63.2385 184.363 63.8145 184.675C64.4025 184.987 64.8525 185.431 65.1645 186.007C65.4885 186.583 65.6505 187.249 65.6505 188.005C65.6505 188.821 65.4465 189.523 65.0385 190.111C64.6305 190.687 64.0605 191.095 63.3285 191.335C63.2685 191.359 63.2505 191.401 63.2745 191.461L65.7225 196.555C65.7465 196.603 65.7585 196.639 65.7585 196.663C65.7585 196.759 65.6925 196.807 65.5605 196.807H63.3465ZM59.0625 186.385C59.0025 186.385 58.9725 186.415 58.9725 186.475V189.553C58.9725 189.613 59.0025 189.643 59.0625 189.643H61.4205C61.9245 189.643 62.3325 189.493 62.6445 189.193C62.9685 188.893 63.1305 188.503 63.1305 188.023C63.1305 187.543 62.9685 187.153 62.6445 186.853C62.3325 186.541 61.9245 186.385 61.4205 186.385H59.0625ZM76.2391 186.169C76.2391 186.229 76.2151 186.283 76.1671 186.331C76.1311 186.367 76.0831 186.385 76.0231 186.385H70.1191C70.0591 186.385 70.0291 186.415 70.0291 186.475V189.265C70.0291 189.325 70.0591 189.355 70.1191 189.355H73.9891C74.0491 189.355 74.0971 189.379 74.1331 189.427C74.1811 189.463 74.2051 189.511 74.2051 189.571V191.317C74.2051 191.377 74.1811 191.431 74.1331 191.479C74.0971 191.515 74.0491 191.533 73.9891 191.533H70.1191C70.0591 191.533 70.0291 191.563 70.0291 191.623V194.539C70.0291 194.599 70.0591 194.629 70.1191 194.629H76.0231C76.0831 194.629 76.1311 194.653 76.1671 194.701C76.2151 194.737 76.2391 194.785 76.2391 194.845V196.591C76.2391 196.651 76.2151 196.705 76.1671 196.753C76.1311 196.789 76.0831 196.807 76.0231 196.807H67.7071C67.6471 196.807 67.5931 196.789 67.5451 196.753C67.5091 196.705 67.4911 196.651 67.4911 196.591V184.423C67.4911 184.363 67.5091 184.315 67.5451 184.279C67.5931 184.231 67.6471 184.207 67.7071 184.207H76.0231C76.0831 184.207 76.1311 184.231 76.1671 184.279C76.2151 184.315 76.2391 184.363 76.2391 184.423V186.169Z" fill="#30404D"/>
<path d="M9.33553 280.423C9.33553 280.363 9.35353 280.315 9.38953 280.279C9.43753 280.231 9.49153 280.207 9.55153 280.207H11.6575C11.7175 280.207 11.7655 280.231 11.8015 280.279C11.8495 280.315 11.8735 280.363 11.8735 280.423V292.591C11.8735 292.651 11.8495 292.705 11.8015 292.753C11.7655 292.789 11.7175 292.807 11.6575 292.807H9.62353C9.50353 292.807 9.41953 292.759 9.37153 292.663L4.70953 284.959C4.68553 284.923 4.66153 284.911 4.63753 284.923C4.61353 284.923 4.60153 284.947 4.60153 284.995L4.63753 292.591C4.63753 292.651 4.61353 292.705 4.56553 292.753C4.52953 292.789 4.48153 292.807 4.42153 292.807H2.31553C2.25553 292.807 2.20153 292.789 2.15353 292.753C2.11753 292.705 2.09953 292.651 2.09953 292.591V280.423C2.09953 280.363 2.11753 280.315 2.15353 280.279C2.20153 280.231 2.25553 280.207 2.31553 280.207H4.34953C4.46953 280.207 4.55353 280.255 4.60153 280.351L9.24553 288.019C9.26953 288.055 9.29353 288.073 9.31753 288.073C9.34153 288.061 9.35353 288.031 9.35353 287.983L9.33553 280.423ZM18.6422 292.951C17.7182 292.951 16.9022 292.771 16.1942 292.411C15.4982 292.051 14.9522 291.547 14.5562 290.899C14.1722 290.239 13.9802 289.483 13.9802 288.631V280.423C13.9802 280.363 13.9982 280.315 14.0342 280.279C14.0822 280.231 14.1362 280.207 14.1962 280.207H16.3022C16.3622 280.207 16.4102 280.231 16.4462 280.279C16.4942 280.315 16.5182 280.363 16.5182 280.423V288.649C16.5182 289.285 16.7102 289.801 17.0942 290.197C17.4902 290.581 18.0062 290.773 18.6422 290.773C19.2782 290.773 19.7882 290.581 20.1722 290.197C20.5682 289.801 20.7662 289.285 20.7662 288.649V280.423C20.7662 280.363 20.7842 280.315 20.8202 280.279C20.8682 280.231 20.9222 280.207 20.9822 280.207H23.0882C23.1482 280.207 23.1962 280.231 23.2322 280.279C23.2802 280.315 23.3042 280.363 23.3042 280.423V288.631C23.3042 289.483 23.1062 290.239 22.7102 290.899C22.3262 291.547 21.7802 292.051 21.0722 292.411C20.3762 292.771 19.5662 292.951 18.6422 292.951ZM32.3025 292.807C32.1825 292.807 32.0985 292.753 32.0505 292.645L29.8005 287.659C29.7765 287.611 29.7405 287.587 29.6925 287.587H28.0185C27.9585 287.587 27.9285 287.617 27.9285 287.677V292.591C27.9285 292.651 27.9045 292.705 27.8565 292.753C27.8205 292.789 27.7725 292.807 27.7125 292.807H25.6065C25.5465 292.807 25.4925 292.789 25.4445 292.753C25.4085 292.705 25.3905 292.651 25.3905 292.591V280.423C25.3905 280.363 25.4085 280.315 25.4445 280.279C25.4925 280.231 25.5465 280.207 25.6065 280.207H30.7545C31.5225 280.207 32.1945 280.363 32.7705 280.675C33.3585 280.987 33.8085 281.431 34.1205 282.007C34.4445 282.583 34.6065 283.249 34.6065 284.005C34.6065 284.821 34.4025 285.523 33.9945 286.111C33.5865 286.687 33.0165 287.095 32.2845 287.335C32.2245 287.359 32.2065 287.401 32.2305 287.461L34.6785 292.555C34.7026 292.603 34.7146 292.639 34.7146 292.663C34.7146 292.759 34.6486 292.807 34.5165 292.807H32.3025ZM28.0185 282.385C27.9585 282.385 27.9285 282.415 27.9285 282.475V285.553C27.9285 285.613 27.9585 285.643 28.0185 285.643H30.3765C30.8805 285.643 31.2885 285.493 31.6005 285.193C31.9245 284.893 32.0865 284.503 32.0865 284.023C32.0865 283.543 31.9245 283.153 31.6005 282.853C31.2885 282.541 30.8805 282.385 30.3765 282.385H28.0185ZM45.1236 280.207C45.1836 280.207 45.2316 280.231 45.2676 280.279C45.3156 280.315 45.3396 280.363 45.3396 280.423V282.187C45.3396 282.247 45.3156 282.301 45.2676 282.349C45.2316 282.385 45.1836 282.403 45.1236 282.403H41.9016C41.8416 282.403 41.8116 282.433 41.8116 282.493V292.591C41.8116 292.651 41.7876 292.705 41.7396 292.753C41.7036 292.789 41.6556 292.807 41.5956 292.807H39.4896C39.4296 292.807 39.3756 292.789 39.3276 292.753C39.2916 292.705 39.2736 292.651 39.2736 292.591V282.493C39.2736 282.433 39.2436 282.403 39.1836 282.403H36.0516C35.9916 282.403 35.9376 282.385 35.8896 282.349C35.8536 282.301 35.8356 282.247 35.8356 282.187V280.423C35.8356 280.363 35.8536 280.315 35.8896 280.279C35.9376 280.231 35.9916 280.207 36.0516 280.207H45.1236ZM51.5309 292.951C50.6069 292.951 49.7909 292.771 49.0829 292.411C48.3869 292.051 47.8409 291.547 47.4449 290.899C47.0609 290.239 46.8689 289.483 46.8689 288.631V280.423C46.8689 280.363 46.8869 280.315 46.9229 280.279C46.9709 280.231 47.0249 280.207 47.0849 280.207H49.1909C49.2509 280.207 49.2989 280.231 49.3349 280.279C49.3829 280.315 49.4069 280.363 49.4069 280.423V288.649C49.4069 289.285 49.5989 289.801 49.9829 290.197C50.3789 290.581 50.8949 290.773 51.5309 290.773C52.1669 290.773 52.6769 290.581 53.0609 290.197C53.4569 289.801 53.6549 289.285 53.6549 288.649V280.423C53.6549 280.363 53.6729 280.315 53.7089 280.279C53.7569 280.231 53.8109 280.207 53.8709 280.207H55.9769C56.0369 280.207 56.0849 280.231 56.1209 280.279C56.1689 280.315 56.1929 280.363 56.1929 280.423V288.631C56.1929 289.483 55.9949 290.239 55.5989 290.899C55.2149 291.547 54.6689 292.051 53.9609 292.411C53.2649 292.771 52.4549 292.951 51.5309 292.951ZM65.1912 292.807C65.0712 292.807 64.9872 292.753 64.9392 292.645L62.6892 287.659C62.6652 287.611 62.6292 287.587 62.5812 287.587H60.9072C60.8472 287.587 60.8172 287.617 60.8172 287.677V292.591C60.8172 292.651 60.7932 292.705 60.7452 292.753C60.7092 292.789 60.6612 292.807 60.6012 292.807H58.4952C58.4352 292.807 58.3812 292.789 58.3332 292.753C58.2972 292.705 58.2792 292.651 58.2792 292.591V280.423C58.2792 280.363 58.2972 280.315 58.3332 280.279C58.3812 280.231 58.4352 280.207 58.4952 280.207H63.6432C64.4112 280.207 65.0832 280.363 65.6592 280.675C66.2472 280.987 66.6972 281.431 67.0092 282.007C67.3332 282.583 67.4952 283.249 67.4952 284.005C67.4952 284.821 67.2912 285.523 66.8832 286.111C66.4752 286.687 65.9052 287.095 65.1732 287.335C65.1132 287.359 65.0952 287.401 65.1192 287.461L67.5672 292.555C67.5912 292.603 67.6032 292.639 67.6032 292.663C67.6032 292.759 67.5372 292.807 67.4052 292.807H65.1912ZM60.9072 282.385C60.8472 282.385 60.8172 282.415 60.8172 282.475V285.553C60.8172 285.613 60.8472 285.643 60.9072 285.643H63.2652C63.7692 285.643 64.1772 285.493 64.4892 285.193C64.8132 284.893 64.9752 284.503 64.9752 284.023C64.9752 283.543 64.8132 283.153 64.4892 282.853C64.1772 282.541 63.7692 282.385 63.2652 282.385H60.9072ZM78.0839 282.169C78.0839 282.229 78.0599 282.283 78.0119 282.331C77.9759 282.367 77.9279 282.385 77.8679 282.385H71.9639C71.9039 282.385 71.8739 282.415 71.8739 282.475V285.265C71.8739 285.325 71.9039 285.355 71.9639 285.355H75.8339C75.8939 285.355 75.9419 285.379 75.9779 285.427C76.0259 285.463 76.0499 285.511 76.0499 285.571V287.317C76.0499 287.377 76.0259 287.431 75.9779 287.479C75.9419 287.515 75.8939 287.533 75.8339 287.533H71.9639C71.9039 287.533 71.8739 287.563 71.8739 287.623V290.539C71.8739 290.599 71.9039 290.629 71.9639 290.629H77.8679C77.9279 290.629 77.9759 290.653 78.0119 290.701C78.0599 290.737 78.0839 290.785 78.0839 290.845V292.591C78.0839 292.651 78.0599 292.705 78.0119 292.753C77.9759 292.789 77.9279 292.807 77.8679 292.807H69.5519C69.4919 292.807 69.4379 292.789 69.3899 292.753C69.3539 292.705 69.3359 292.651 69.3359 292.591V280.423C69.3359 280.363 69.3539 280.315 69.3899 280.279C69.4379 280.231 69.4919 280.207 69.5519 280.207H77.8679C77.9279 280.207 77.9759 280.231 78.0119 280.279C78.0599 280.315 78.0839 280.363 78.0839 280.423V282.169Z" fill="#30404D"/>
<path d="M31.5295 381.951C30.5935 381.951 29.7715 381.771 29.0635 381.411C28.3555 381.039 27.8095 380.523 27.4255 379.863C27.0415 379.203 26.8495 378.441 26.8495 377.577V373.419C26.8495 372.555 27.0415 371.793 27.4255 371.133C27.8095 370.473 28.3555 369.963 29.0635 369.603C29.7715 369.243 30.5935 369.063 31.5295 369.063C32.4535 369.063 33.2635 369.237 33.9595 369.585C34.6675 369.921 35.2135 370.407 35.5975 371.043C35.9935 371.667 36.1915 372.393 36.1915 373.221C36.1915 373.329 36.1195 373.395 35.9755 373.419L33.8695 373.545H33.8335C33.7135 373.545 33.6535 373.479 33.6535 373.347C33.6535 372.711 33.4555 372.201 33.0595 371.817C32.6755 371.433 32.1655 371.241 31.5295 371.241C30.8815 371.241 30.3595 371.433 29.9635 371.817C29.5795 372.201 29.3875 372.711 29.3875 373.347V377.685C29.3875 378.309 29.5795 378.813 29.9635 379.197C30.3595 379.581 30.8815 379.773 31.5295 379.773C32.1655 379.773 32.6755 379.581 33.0595 379.197C33.4555 378.813 33.6535 378.309 33.6535 377.685C33.6535 377.553 33.7255 377.487 33.8695 377.487L35.9755 377.577C36.0355 377.577 36.0835 377.595 36.1195 377.631C36.1675 377.667 36.1915 377.709 36.1915 377.757C36.1915 378.585 35.9935 379.317 35.5975 379.953C35.2135 380.589 34.6675 381.081 33.9595 381.429C33.2635 381.777 32.4535 381.951 31.5295 381.951ZM38.2687 381.807C38.2087 381.807 38.1547 381.789 38.1067 381.753C38.0707 381.705 38.0527 381.651 38.0527 381.591V369.423C38.0527 369.363 38.0707 369.315 38.1067 369.279C38.1547 369.231 38.2087 369.207 38.2687 369.207H40.3747C40.4347 369.207 40.4827 369.231 40.5187 369.279C40.5667 369.315 40.5907 369.363 40.5907 369.423V379.539C40.5907 379.599 40.6207 379.629 40.6807 379.629H46.5667C46.6267 379.629 46.6747 379.653 46.7107 379.701C46.7587 379.737 46.7827 379.785 46.7827 379.845V381.591C46.7827 381.651 46.7587 381.705 46.7107 381.753C46.6747 381.789 46.6267 381.807 46.5667 381.807H38.2687ZM52.6948 382.005C51.7588 382.005 50.9308 381.813 50.2108 381.429C49.5028 381.045 48.9508 380.511 48.5548 379.827C48.1588 379.131 47.9608 378.333 47.9608 377.433V373.581C47.9608 372.693 48.1588 371.907 48.5548 371.223C48.9508 370.539 49.5028 370.011 50.2108 369.639C50.9308 369.255 51.7588 369.063 52.6948 369.063C53.6428 369.063 54.4708 369.255 55.1788 369.639C55.8988 370.011 56.4568 370.539 56.8528 371.223C57.2488 371.907 57.4468 372.693 57.4468 373.581V377.433C57.4468 378.333 57.2488 379.131 56.8528 379.827C56.4568 380.523 55.8988 381.063 55.1788 381.447C54.4708 381.819 53.6428 382.005 52.6948 382.005ZM52.6948 379.827C53.3548 379.827 53.8888 379.617 54.2968 379.197C54.7048 378.777 54.9088 378.219 54.9088 377.523V373.563C54.9088 372.867 54.7048 372.309 54.2968 371.889C53.9008 371.457 53.3668 371.241 52.6948 371.241C52.0348 371.241 51.5008 371.457 51.0928 371.889C50.6968 372.309 50.4988 372.867 50.4988 373.563V377.523C50.4988 378.219 50.6968 378.777 51.0928 379.197C51.5008 379.617 52.0348 379.827 52.6948 379.827ZM63.7125 381.951C62.7525 381.951 61.9125 381.801 61.1925 381.501C60.4725 381.189 59.9145 380.751 59.5185 380.187C59.1345 379.611 58.9425 378.945 58.9425 378.189V377.793C58.9425 377.733 58.9605 377.685 58.9965 377.649C59.0445 377.601 59.0985 377.577 59.1585 377.577H61.2105C61.2705 377.577 61.3185 377.601 61.3545 377.649C61.4025 377.685 61.4265 377.733 61.4265 377.793V378.063C61.4265 378.543 61.6485 378.951 62.0925 379.287C62.5365 379.611 63.1365 379.773 63.8925 379.773C64.5285 379.773 65.0025 379.641 65.3145 379.377C65.6265 379.101 65.7825 378.765 65.7825 378.369C65.7825 378.081 65.6865 377.841 65.4945 377.649C65.3025 377.445 65.0385 377.271 64.7025 377.127C64.3785 376.971 63.8565 376.761 63.1365 376.497C62.3325 376.221 61.6485 375.939 61.0845 375.651C60.5325 375.363 60.0645 374.973 59.6805 374.481C59.3085 373.977 59.1225 373.359 59.1225 372.627C59.1225 371.907 59.3085 371.277 59.6805 370.737C60.0525 370.197 60.5685 369.783 61.2285 369.495C61.8885 369.207 62.6505 369.063 63.5145 369.063C64.4265 369.063 65.2365 369.225 65.9445 369.549C66.6645 369.873 67.2225 370.329 67.6185 370.917C68.0265 371.493 68.2305 372.165 68.2305 372.933V373.203C68.2305 373.263 68.2065 373.317 68.1585 373.365C68.1225 373.401 68.0745 373.419 68.0145 373.419H65.9445C65.8845 373.419 65.8305 373.401 65.7825 373.365C65.7465 373.317 65.7285 373.263 65.7285 373.203V373.059C65.7285 372.555 65.5185 372.129 65.0985 371.781C64.6905 371.421 64.1265 371.241 63.4065 371.241C62.8425 371.241 62.3985 371.361 62.0745 371.601C61.7625 371.841 61.6065 372.171 61.6065 372.591C61.6065 372.891 61.6965 373.143 61.8765 373.347C62.0685 373.551 62.3445 373.737 62.7045 373.905C63.0765 374.061 63.6465 374.277 64.4145 374.553C65.2665 374.865 65.9325 375.141 66.4125 375.381C66.9045 375.621 67.3425 375.981 67.7265 376.461C68.1225 376.929 68.3205 377.541 68.3205 378.297C68.3205 379.425 67.9065 380.319 67.0785 380.979C66.2505 381.627 65.1285 381.951 63.7125 381.951ZM78.8456 371.169C78.8456 371.229 78.8216 371.283 78.7736 371.331C78.7376 371.367 78.6896 371.385 78.6296 371.385H72.7256C72.6656 371.385 72.6356 371.415 72.6356 371.475V374.265C72.6356 374.325 72.6656 374.355 72.7256 374.355H76.5956C76.6556 374.355 76.7036 374.379 76.7396 374.427C76.7876 374.463 76.8116 374.511 76.8116 374.571V376.317C76.8116 376.377 76.7876 376.431 76.7396 376.479C76.7036 376.515 76.6556 376.533 76.5956 376.533H72.7256C72.6656 376.533 72.6356 376.563 72.6356 376.623V379.539C72.6356 379.599 72.6656 379.629 72.7256 379.629H78.6296C78.6896 379.629 78.7376 379.653 78.7736 379.701C78.8216 379.737 78.8456 379.785 78.8456 379.845V381.591C78.8456 381.651 78.8216 381.705 78.7736 381.753C78.7376 381.789 78.6896 381.807 78.6296 381.807H70.3136C70.2536 381.807 70.1996 381.789 70.1516 381.753C70.1156 381.705 70.0976 381.651 70.0976 381.591V369.423C70.0976 369.363 70.1156 369.315 70.1516 369.279C70.1996 369.231 70.2536 369.207 70.3136 369.207H78.6296C78.6896 369.207 78.7376 369.231 78.7736 369.279C78.8216 369.315 78.8456 369.363 78.8456 369.423V371.169Z" fill="#30404D"/>
</g>
<defs>
<clipPath id="clip0_2_488">
<rect width="475" height="424.057" fill="white"/>
</clipPath>
</defs>
</svg>
