<svg width="17" height="17" viewBox="0 0 17 17" fill="none" xmlns="http://www.w3.org/2000/svg">
<path d="M15.2498 16.3333C15.5814 16.3333 15.8993 16.2016 16.1337 15.9672C16.3681 15.7328 16.4998 15.4149 16.4998 15.0833V12.1667C16.4998 11.8351 16.3681 11.5172 16.1337 11.2828C15.8993 11.0484 15.5814 10.9167 15.2498 10.9167C14.2748 10.9167 13.3165 10.7667 12.3998 10.4583C12.1807 10.3892 11.9468 10.3813 11.7235 10.4357C11.5002 10.49 11.296 10.6045 11.1332 10.7667L9.93317 11.9667C7.86004 10.8353 6.15616 9.13147 5.02484 7.05833L6.2165 5.86667C6.55817 5.54167 6.68317 5.05833 6.53317 4.59167C6.23317 3.68333 6.08317 2.725 6.08317 1.75C6.08317 1.41848 5.95148 1.10054 5.71705 0.866117C5.48263 0.631696 5.16469 0.5 4.83317 0.5H1.9165C1.58498 0.5 1.26704 0.631696 1.03262 0.866117C0.7982 1.10054 0.666504 1.41848 0.666504 1.75C0.666504 9.79167 7.20817 16.3333 15.2498 16.3333ZM1.9165 1.33333H4.83317C4.94368 1.33333 5.04966 1.37723 5.1278 1.45537C5.20594 1.53351 5.24984 1.63949 5.24984 1.75C5.24984 2.81667 5.4165 3.85833 5.7415 4.85C5.78317 4.96667 5.77484 5.13333 5.6415 5.26667L3.99984 6.9C5.37484 9.59167 7.3915 11.6083 10.0915 13L11.7165 11.3583C11.8332 11.2417 11.9915 11.2083 12.1415 11.25C13.1415 11.5833 14.1832 11.75 15.2498 11.75C15.3603 11.75 15.4663 11.7939 15.5445 11.872C15.6226 11.9502 15.6665 12.0562 15.6665 12.1667V15.0833C15.6665 15.1938 15.6226 15.2998 15.5445 15.378C15.4663 15.4561 15.3603 15.5 15.2498 15.5C7.6665 15.5 1.49984 9.33333 1.49984 1.75C1.49984 1.63949 1.54374 1.53351 1.62188 1.45537C1.70002 1.37723 1.806 1.33333 1.9165 1.33333Z" fill="#808080"/>
</svg>
