<svg width="20" height="20" viewBox="0 0 20 20" fill="none" xmlns="http://www.w3.org/2000/svg">
<path d="M10.625 1.875C10.625 1.70924 10.5592 1.55027 10.4419 1.43306C10.3247 1.31585 10.1658 1.25 10 1.25C9.83424 1.25 9.67527 1.31585 9.55806 1.43306C9.44085 1.55027 9.375 1.70924 9.375 1.875V2.5H6.875C6.37772 2.5 5.90081 2.69754 5.54917 3.04917C5.19754 3.40081 5 3.87772 5 4.375V8.125C5 8.62228 5.19754 9.09919 5.54917 9.45083C5.90081 9.80246 6.37772 10 6.875 10H13.125C13.6223 10 14.0992 9.80246 14.4508 9.45083C14.8025 9.09919 15 8.62228 15 8.125V4.375C15 3.87772 14.8025 3.40081 14.4508 3.04917C14.0992 2.69754 13.6223 2.5 13.125 2.5H10.625V1.875ZM6.25 4.375C6.25 4.20924 6.31585 4.05027 6.43306 3.93306C6.55027 3.81585 6.70924 3.75 6.875 3.75H13.125C13.2908 3.75 13.4497 3.81585 13.5669 3.93306C13.6842 4.05027 13.75 4.20924 13.75 4.375V8.125C13.75 8.29076 13.6842 8.44973 13.5669 8.56694C13.4497 8.68415 13.2908 8.75 13.125 8.75H6.875C6.70924 8.75 6.55027 8.68415 6.43306 8.56694C6.31585 8.44973 6.25 8.29076 6.25 8.125V4.375ZM5 13.75C5 13.5842 5.06585 13.4253 5.18306 13.3081C5.30027 13.1908 5.45924 13.125 5.625 13.125H14.375C14.5408 13.125 14.6997 13.1908 14.8169 13.3081C14.9342 13.4253 15 13.5842 15 13.75V14.1875C15 15.3713 14.4925 16.1575 13.6538 16.68C12.7775 17.2262 11.5037 17.5 10 17.5C8.50625 17.5 7.2325 17.2275 6.3525 16.68C5.51 16.1562 5 15.3688 5 14.1875V13.75ZM5.625 11.875C5.12772 11.875 4.65081 12.0725 4.29917 12.4242C3.94754 12.7758 3.75 13.2527 3.75 13.75V14.1875C3.75 15.8188 4.5 17 5.6925 17.7412C6.84875 18.46 8.3875 18.75 10 18.75C11.6213 18.75 13.16 18.4613 14.315 17.7412C15.5075 17 16.25 15.8163 16.25 14.1875V13.75C16.25 13.2527 16.0525 12.7758 15.7008 12.4242C15.3492 12.0725 14.8723 11.875 14.375 11.875H5.625ZM9.0625 6.25C9.0625 6.49864 8.96373 6.7371 8.78791 6.91291C8.6121 7.08873 8.37364 7.1875 8.125 7.1875C7.87636 7.1875 7.6379 7.08873 7.46209 6.91291C7.28627 6.7371 7.1875 6.49864 7.1875 6.25C7.1875 6.00136 7.28627 5.7629 7.46209 5.58709C7.6379 5.41127 7.87636 5.3125 8.125 5.3125C8.37364 5.3125 8.6121 5.41127 8.78791 5.58709C8.96373 5.7629 9.0625 6.00136 9.0625 6.25ZM11.875 7.1875C12.1236 7.1875 12.3621 7.08873 12.5379 6.91291C12.7137 6.7371 12.8125 6.49864 12.8125 6.25C12.8125 6.00136 12.7137 5.7629 12.5379 5.58709C12.3621 5.41127 12.1236 5.3125 11.875 5.3125C11.6264 5.3125 11.3879 5.41127 11.2121 5.58709C11.0363 5.7629 10.9375 6.00136 10.9375 6.25C10.9375 6.49864 11.0363 6.7371 11.2121 6.91291C11.3879 7.08873 11.6264 7.1875 11.875 7.1875Z" fill="#424242"/>
</svg>
