<svg width="16" height="16" viewBox="0 0 16 16" fill="none" xmlns="http://www.w3.org/2000/svg">
<path d="M2 11.64V13.6666C2 13.8533 2.14667 14 2.33333 14H4.36C4.44667 14 4.53333 13.9666 4.59333 13.9L11.8733 6.62665L9.37333 4.12665L2.1 11.4C2.03333 11.4666 2 11.5466 2 11.64ZM13.8067 4.69332C13.8685 4.63164 13.9175 4.55838 13.951 4.47773C13.9844 4.39708 14.0016 4.31063 14.0016 4.22331C14.0016 4.136 13.9844 4.04955 13.951 3.9689C13.9175 3.88825 13.8685 3.81499 13.8067 3.75331L12.2467 2.19331C12.185 2.13151 12.1117 2.08248 12.0311 2.04903C11.9504 2.01557 11.864 1.99835 11.7767 1.99835C11.6894 1.99835 11.6029 2.01557 11.5223 2.04903C11.4416 2.08248 11.3683 2.13151 11.3067 2.19331L10.0867 3.41331L12.5867 5.91331L13.8067 4.69332Z" fill="#606060"/>
</svg>
