<svg width="237" height="156" viewBox="0 0 237 156" fill="none" xmlns="http://www.w3.org/2000/svg">
<g filter="url(#filter0_d_2_383)">
<rect x="11.1133" y="9.02356" width="212.386" height="131.419" rx="12.7003" fill="white"/>
<path d="M31.1724 23.0709C31.1724 23.0031 31.2062 22.9693 31.274 22.9693H31.7922C31.8599 22.9693 31.8938 23.0031 31.8938 23.0709V29.9798C31.8938 30.0476 31.8599 30.0814 31.7922 30.0814H31.2841C31.2367 30.0814 31.1961 30.0577 31.1622 30.0103L27.6976 24.3714C27.6908 24.3511 27.6807 24.3443 27.6671 24.3511C27.6536 24.3511 27.6468 24.3612 27.6468 24.3815L27.6569 29.9798C27.6569 30.0476 27.6231 30.0814 27.5553 30.0814H27.0372C26.9694 30.0814 26.9356 30.0476 26.9356 29.9798V23.0709C26.9356 23.0031 26.9694 22.9693 27.0372 22.9693H27.5452C27.5926 22.9693 27.6332 22.993 27.6671 23.0404L31.1317 28.6793C31.1385 28.6996 31.1487 28.7098 31.1622 28.7098C31.1758 28.703 31.1825 28.6895 31.1825 28.6692L31.1724 23.0709ZM37.6016 26.6473C37.6287 26.8369 37.6422 27.074 37.6422 27.3585V27.6836C37.6422 27.7513 37.6083 27.7852 37.5406 27.7852H34.2589C34.2318 27.7852 34.2182 27.7988 34.2182 27.8259C34.2318 28.1984 34.2521 28.4389 34.2792 28.5472C34.3537 28.852 34.5129 29.0925 34.7567 29.2686C35.0006 29.4447 35.3121 29.5328 35.6914 29.5328C35.9759 29.5328 36.2266 29.4684 36.4433 29.3397C36.6601 29.211 36.8294 29.0281 36.9513 28.7911C36.992 28.7301 37.0394 28.7166 37.0936 28.7504L37.4898 28.9841C37.544 29.018 37.5575 29.0654 37.5304 29.1264C37.3611 29.4515 37.1071 29.7089 36.7684 29.8985C36.4298 30.0814 36.0403 30.1729 35.6 30.1729C35.1191 30.1661 34.7161 30.0509 34.3909 29.8274C34.0658 29.6039 33.8321 29.2923 33.6899 28.8927C33.568 28.5675 33.507 28.1002 33.507 27.4906C33.507 27.2061 33.5104 26.9758 33.5172 26.7997C33.5307 26.6168 33.5578 26.4542 33.5984 26.312C33.7136 25.8717 33.9439 25.5195 34.2893 25.2553C34.6416 24.9912 35.0649 24.8591 35.5594 24.8591C36.1758 24.8591 36.6499 25.0149 36.9818 25.3264C37.3137 25.638 37.5203 26.0783 37.6016 26.6473ZM35.5594 25.489C35.2275 25.489 34.9498 25.5771 34.7262 25.7532C34.5095 25.9225 34.3672 26.1528 34.2995 26.4441C34.2589 26.5863 34.2318 26.8166 34.2182 27.135C34.2182 27.1621 34.2318 27.1756 34.2589 27.1756H36.8904C36.9174 27.1756 36.931 27.1621 36.931 27.135C36.9174 26.8302 36.8971 26.6134 36.87 26.4847C36.7955 26.1799 36.6431 25.9394 36.4128 25.7633C36.1893 25.5804 35.9048 25.489 35.5594 25.489ZM41.3138 25.4382C41.3138 25.5059 41.2799 25.5398 41.2122 25.5398H40.0641C40.037 25.5398 40.0234 25.5534 40.0234 25.5804V28.5777C40.0234 28.9028 40.0945 29.1331 40.2368 29.2686C40.3858 29.3973 40.6161 29.4616 40.9277 29.4616H41.1817C41.2494 29.4616 41.2833 29.4955 41.2833 29.5633V29.9798C41.2833 30.0476 41.2494 30.0814 41.1817 30.0814C41.1004 30.0882 40.9751 30.0916 40.8058 30.0916C40.3181 30.0916 39.9489 30.0001 39.6983 29.8173C39.4477 29.6344 39.3224 29.2957 39.3224 28.8012V25.5804C39.3224 25.5534 39.3088 25.5398 39.2817 25.5398H38.662C38.5942 25.5398 38.5604 25.5059 38.5604 25.4382V25.042C38.5604 24.9742 38.5942 24.9404 38.662 24.9404H39.2817C39.3088 24.9404 39.3224 24.9268 39.3224 24.8997V23.7211C39.3224 23.6534 39.3562 23.6195 39.424 23.6195H39.9218C39.9896 23.6195 40.0234 23.6534 40.0234 23.7211V24.8997C40.0234 24.9268 40.037 24.9404 40.0641 24.9404H41.2122C41.2799 24.9404 41.3138 24.9742 41.3138 25.042V25.4382ZM46.937 30.1627C46.1716 30.1627 45.5653 29.99 45.1183 29.6445C44.678 29.2991 44.4579 28.8385 44.4579 28.2627V27.9478C44.4579 27.88 44.4918 27.8462 44.5595 27.8462H45.0573C45.1251 27.8462 45.1589 27.88 45.1589 27.9478V28.2221C45.1589 28.615 45.3215 28.9333 45.6466 29.1772C45.9718 29.4142 46.4222 29.5328 46.9979 29.5328C47.5195 29.5328 47.9157 29.4244 48.1867 29.2076C48.4576 28.9841 48.5931 28.6895 48.5931 28.3237C48.5931 28.0866 48.5287 27.8834 48.4 27.7141C48.2781 27.5448 48.0851 27.3856 47.8209 27.2366C47.5635 27.0875 47.1978 26.9148 46.7236 26.7184C46.2156 26.5152 45.8194 26.3391 45.5349 26.1901C45.2572 26.0343 45.0302 25.8378 44.8541 25.6008C44.6848 25.3569 44.6001 25.0521 44.6001 24.6864C44.6001 24.1174 44.7966 23.6771 45.1894 23.3655C45.5891 23.0472 46.1343 22.888 46.8252 22.888C47.5771 22.888 48.1697 23.0641 48.6032 23.4163C49.0368 23.7685 49.2535 24.2359 49.2535 24.8184V25.042C49.2535 25.1097 49.2196 25.1436 49.1519 25.1436H48.6439C48.5762 25.1436 48.5423 25.1097 48.5423 25.042V24.8591C48.5423 24.4662 48.3865 24.1445 48.0749 23.8939C47.7701 23.6432 47.3434 23.5179 46.7947 23.5179C46.3138 23.5179 45.9447 23.6161 45.6873 23.8126C45.4299 24.009 45.3012 24.2935 45.3012 24.666C45.3012 24.9099 45.3621 25.1131 45.4841 25.2756C45.6128 25.4314 45.7923 25.5703 46.0226 25.6922C46.2596 25.8074 46.622 25.9598 47.1097 26.1494C47.6042 26.3526 48.0004 26.5423 48.2984 26.7184C48.6032 26.8945 48.8471 27.1113 49.03 27.3686C49.2196 27.6193 49.3145 27.9275 49.3145 28.2932C49.3145 28.8622 49.1045 29.316 48.6845 29.6547C48.2646 29.9934 47.6821 30.1627 46.937 30.1627ZM52.434 24.8591C53.0436 24.8591 53.5143 25.0149 53.8462 25.3264C54.1781 25.638 54.3441 26.0512 54.3441 26.566V29.9798C54.3441 30.0476 54.3102 30.0814 54.2425 30.0814H53.7243C53.6566 30.0814 53.6227 30.0476 53.6227 29.9798V29.5633C53.6227 29.5497 53.6159 29.5395 53.6024 29.5328C53.5956 29.526 53.5855 29.5294 53.5719 29.5429C53.4026 29.7461 53.1824 29.9019 52.9115 30.0103C52.6406 30.1119 52.3391 30.1627 52.0072 30.1627C51.5263 30.1627 51.1233 30.0408 50.7982 29.7969C50.473 29.5531 50.3105 29.1805 50.3105 28.6793C50.3105 28.1713 50.4934 27.7717 50.8591 27.4804C51.2317 27.1824 51.7465 27.0334 52.4035 27.0334H53.5821C53.6092 27.0334 53.6227 27.0198 53.6227 26.9927V26.6066C53.6227 26.2612 53.5245 25.9902 53.3281 25.7938C53.1384 25.5906 52.8404 25.489 52.434 25.489C52.1088 25.489 51.8447 25.5534 51.6415 25.6821C51.4383 25.804 51.313 25.9767 51.2655 26.2002C51.2452 26.268 51.2046 26.2984 51.1436 26.2917L50.595 26.2205C50.5205 26.207 50.49 26.1799 50.5035 26.1393C50.5577 25.7599 50.7609 25.4518 51.1131 25.2147C51.4654 24.9776 51.9056 24.8591 52.434 24.8591ZM52.1495 29.5429C52.5491 29.5429 52.8946 29.4447 53.1858 29.2483C53.4771 29.0451 53.6227 28.7741 53.6227 28.4355V27.643C53.6227 27.6159 53.6092 27.6023 53.5821 27.6023H52.5152C52.0682 27.6023 51.7092 27.6938 51.4383 27.8767C51.1673 28.0595 51.0319 28.3135 51.0319 28.6387C51.0319 28.9367 51.1335 29.1636 51.3367 29.3194C51.5466 29.4684 51.8176 29.5429 52.1495 29.5429ZM55.9468 30.0814C55.879 30.0814 55.8452 30.0476 55.8452 29.9798V23.0709C55.8452 23.0031 55.879 22.9693 55.9468 22.9693H56.4649C56.5327 22.9693 56.5665 23.0031 56.5665 23.0709V29.9798C56.5665 30.0476 56.5327 30.0814 56.4649 30.0814H55.9468ZM62.1289 26.6473C62.156 26.8369 62.1696 27.074 62.1696 27.3585V27.6836C62.1696 27.7513 62.1357 27.7852 62.068 27.7852H58.7862C58.7591 27.7852 58.7456 27.7988 58.7456 27.8259C58.7591 28.1984 58.7795 28.4389 58.8066 28.5472C58.8811 28.852 59.0402 29.0925 59.2841 29.2686C59.5279 29.4447 59.8395 29.5328 60.2188 29.5328C60.5033 29.5328 60.7539 29.4684 60.9707 29.3397C61.1874 29.211 61.3568 29.0281 61.4787 28.7911C61.5193 28.7301 61.5667 28.7166 61.6209 28.7504L62.0172 28.9841C62.0714 29.018 62.0849 29.0654 62.0578 29.1264C61.8885 29.4515 61.6345 29.7089 61.2958 29.8985C60.9571 30.0814 60.5677 30.1729 60.1274 30.1729C59.6465 30.1661 59.2434 30.0509 58.9183 29.8274C58.5932 29.6039 58.3595 29.2923 58.2173 28.8927C58.0953 28.5675 58.0344 28.1002 58.0344 27.4906C58.0344 27.2061 58.0378 26.9758 58.0445 26.7997C58.0581 26.6168 58.0852 26.4542 58.1258 26.312C58.241 25.8717 58.4713 25.5195 58.8167 25.2553C59.1689 24.9912 59.5923 24.8591 60.0867 24.8591C60.7031 24.8591 61.1773 25.0149 61.5092 25.3264C61.8411 25.638 62.0477 26.0783 62.1289 26.6473ZM60.0867 25.489C59.7548 25.489 59.4771 25.5771 59.2536 25.7532C59.0369 25.9225 58.8946 26.1528 58.8269 26.4441C58.7862 26.5863 58.7591 26.8166 58.7456 27.135C58.7456 27.1621 58.7591 27.1756 58.7862 27.1756H61.4177C61.4448 27.1756 61.4584 27.1621 61.4584 27.135C61.4448 26.8302 61.4245 26.6134 61.3974 26.4847C61.3229 26.1799 61.1705 25.9394 60.9402 25.7633C60.7167 25.5804 60.4322 25.489 60.0867 25.489ZM65.2015 30.1322C64.8222 30.1322 64.4835 30.0713 64.1855 29.9493C63.8943 29.8274 63.6673 29.6649 63.5048 29.4616C63.349 29.2584 63.2711 29.0315 63.2711 28.7809V28.659C63.2711 28.5913 63.305 28.5574 63.3727 28.5574H63.8604C63.9281 28.5574 63.962 28.5913 63.962 28.659V28.7403C63.962 28.9638 64.0771 29.1602 64.3074 29.3296C64.5445 29.4921 64.8392 29.5734 65.1914 29.5734C65.5436 29.5734 65.8281 29.4955 66.0448 29.3397C66.2616 29.1772 66.37 28.974 66.37 28.7301C66.37 28.5608 66.3124 28.4219 66.1972 28.3135C66.0889 28.2052 65.9568 28.1205 65.801 28.0595C65.652 27.9986 65.4183 27.9207 65.0999 27.8259C64.7206 27.7175 64.409 27.6091 64.1652 27.5007C63.9214 27.3924 63.7148 27.2433 63.5454 27.0537C63.3829 26.8572 63.3016 26.61 63.3016 26.312C63.3016 25.8785 63.4709 25.533 63.8096 25.2756C64.1483 25.0183 64.5953 24.8896 65.1507 24.8896C65.5233 24.8896 65.8518 24.9505 66.1363 25.0724C66.4275 25.1944 66.6511 25.3637 66.8068 25.5804C66.9626 25.7904 67.0405 26.0275 67.0405 26.2917V26.3221C67.0405 26.3899 67.0067 26.4237 66.9389 26.4237H66.4614C66.3937 26.4237 66.3598 26.3899 66.3598 26.3221V26.2917C66.3598 26.0614 66.248 25.8683 66.0245 25.7125C65.8078 25.5567 65.5131 25.4788 65.1406 25.4788C64.7951 25.4788 64.5174 25.55 64.3074 25.6922C64.0975 25.8277 63.9925 26.0173 63.9925 26.2612C63.9925 26.4915 64.0941 26.6676 64.2973 26.7895C64.5005 26.9114 64.8154 27.0334 65.2422 27.1553C65.635 27.2704 65.9534 27.3788 66.1972 27.4804C66.4411 27.582 66.6511 27.731 66.8272 27.9275C67.0033 28.1171 67.0913 28.3677 67.0913 28.6793C67.0913 29.1196 66.9186 29.4718 66.5732 29.736C66.2277 30.0001 65.7705 30.1322 65.2015 30.1322Z" fill="#2A4A45"/>
<path d="M34.0721 57.0485C34.0721 58.1051 33.7334 58.9789 33.056 59.6698C32.3922 60.3471 31.4643 60.7535 30.2722 60.889C30.218 60.889 30.1909 60.9161 30.1909 60.9703L30.2112 62.3927C30.2112 62.5282 30.1435 62.5959 30.008 62.5959H28.6668C28.5314 62.5959 28.4636 62.5282 28.4636 62.3927L28.484 60.95C28.484 60.8958 28.4569 60.8687 28.4027 60.8687C27.197 60.7061 26.2555 60.2862 25.5781 59.6088C24.9008 58.9179 24.5621 58.0374 24.5621 56.9672V56.3779C24.5621 56.2424 24.6298 56.1747 24.7653 56.1747H26.1674C26.3029 56.1747 26.3706 56.2424 26.3706 56.3779V56.8656C26.3706 57.5565 26.6551 58.1254 27.2241 58.5725C27.7931 59.0195 28.5652 59.2431 29.5406 59.2431C30.4212 59.2431 31.085 59.0466 31.532 58.6538C31.9926 58.2609 32.2229 57.7461 32.2229 57.1094C32.2229 56.6895 32.1078 56.3305 31.8775 56.0324C31.6472 55.7344 31.3085 55.4635 30.8614 55.2196C30.4144 54.9622 29.7641 54.6574 28.9107 54.3052C27.9624 53.9259 27.2173 53.5804 26.6754 53.2689C26.1336 52.9573 25.6797 52.5509 25.314 52.0496C24.9618 51.5348 24.7856 50.8914 24.7856 50.1192C24.7856 49.0896 25.104 48.2565 25.7407 47.6198C26.3774 46.9695 27.2444 46.5699 28.3417 46.4209C28.3959 46.4209 28.423 46.3938 28.423 46.3396L28.4027 44.7749C28.4027 44.6395 28.4704 44.5717 28.6059 44.5717H29.9267C30.0622 44.5717 30.1299 44.6395 30.1299 44.7749L30.1096 46.3599C30.1096 46.4141 30.1367 46.448 30.1909 46.4615C31.3559 46.6241 32.2703 47.0576 32.9341 47.762C33.6115 48.4665 33.9501 49.3538 33.9501 50.424V50.8304C33.9501 50.9659 33.8824 51.0336 33.7469 51.0336H32.3245C32.189 51.0336 32.1213 50.9659 32.1213 50.8304V50.5256C32.1213 49.8212 31.8571 49.2386 31.3288 48.778C30.8005 48.3039 30.0622 48.0668 29.1139 48.0668C28.3146 48.0668 27.6982 48.2429 27.2647 48.5952C26.8312 48.9338 26.6145 49.4283 26.6145 50.0786C26.6145 50.5256 26.7229 50.8914 26.9396 51.1759C27.1699 51.4603 27.495 51.7177 27.915 51.948C28.3485 52.1648 29.0055 52.4493 29.8861 52.8015C30.8073 53.1808 31.5456 53.533 32.101 53.8581C32.67 54.1697 33.1373 54.5897 33.5031 55.118C33.8824 55.6328 34.0721 56.2763 34.0721 57.0485ZM38.5116 46.6038C38.5929 46.5631 38.6809 46.5428 38.7758 46.5428H40.3811C40.5166 46.5428 40.5843 46.6105 40.5843 46.746V60.5639C40.5843 60.6994 40.5166 60.7671 40.3811 60.7671H38.8367C38.7013 60.7671 38.6335 60.6994 38.6335 60.5639V48.6358C38.6335 48.6087 38.62 48.5884 38.5929 48.5748C38.5793 48.5613 38.559 48.5613 38.5319 48.5748L36.3983 49.3064C36.3712 49.3199 36.3373 49.3267 36.2967 49.3267C36.2154 49.3267 36.168 49.2725 36.1544 49.1641L36.0732 48.0059C36.0732 47.8704 36.1138 47.7891 36.1951 47.762L38.5116 46.6038ZM51.4062 49.0422C51.6094 49.6112 51.711 50.2682 51.711 51.0133V57.272C51.711 58.3828 51.3249 59.2702 50.5527 59.934C49.7805 60.5978 48.7713 60.9297 47.525 60.9297C46.7257 60.9297 46.0145 60.7806 45.3913 60.4826C44.7817 60.1846 44.3076 59.7714 43.9689 59.2431C43.6302 58.7012 43.4609 58.0848 43.4609 57.3939V56.9875C43.4609 56.852 43.5286 56.7843 43.6641 56.7843H45.2085C45.3439 56.7843 45.4117 56.852 45.4117 56.9875V57.1704C45.4117 57.78 45.6081 58.2745 46.0009 58.6538C46.3938 59.0331 46.9018 59.2227 47.525 59.2227C48.1752 59.2227 48.7103 59.0263 49.1303 58.6334C49.5502 58.2406 49.7602 57.719 49.7602 57.0688V54.5084C49.7602 54.4813 49.7467 54.461 49.7196 54.4474C49.706 54.4339 49.6857 54.4407 49.6586 54.4678C49.0761 55.1316 48.2294 55.4635 47.1186 55.4635C46.3193 55.4635 45.6284 55.3009 45.0459 54.9758C44.4769 54.6506 44.0299 54.1765 43.7047 53.5533C43.3254 52.8354 43.1358 51.9751 43.1358 50.9726C43.1358 50.1598 43.2645 49.4351 43.5219 48.7984C43.8334 48.0262 44.3211 47.4369 44.9849 47.0305C45.6487 46.6105 46.448 46.4006 47.3827 46.4006C48.3852 46.4006 49.2319 46.6309 49.9228 47.0914C50.6137 47.552 51.1081 48.2023 51.4062 49.0422ZM49.4351 52.5983C49.6518 52.1512 49.7602 51.5755 49.7602 50.871C49.7602 50.3021 49.6722 49.8212 49.4961 49.4283C49.32 48.9948 49.0558 48.6697 48.7036 48.4529C48.3513 48.2226 47.9246 48.1075 47.4234 48.1075C46.9221 48.1075 46.4954 48.2226 46.1432 48.4529C45.8045 48.6697 45.5539 48.988 45.3913 49.408C45.1881 49.8279 45.0865 50.3495 45.0865 50.9726C45.0865 51.65 45.2017 52.2054 45.432 52.6389C45.8519 53.4246 46.5157 53.8175 47.4234 53.8175C48.3852 53.8175 49.0558 53.4111 49.4351 52.5983ZM54.2387 62.5146C54.1709 62.5146 54.1167 62.4943 54.0761 62.4537C54.049 62.413 54.0422 62.3589 54.0558 62.2911L54.8686 57.78C54.8957 57.6581 54.9702 57.5971 55.0921 57.5971H56.4333C56.501 57.5971 56.5484 57.6174 56.5755 57.6581C56.6161 57.6987 56.6297 57.7529 56.6161 57.8206L55.4172 62.3318C55.3901 62.4537 55.3156 62.5146 55.1937 62.5146H54.2387ZM61.08 60.7671C61.0122 60.7671 60.958 60.7468 60.9174 60.7061C60.8903 60.6519 60.8903 60.591 60.9174 60.5232L65.5301 48.331C65.5437 48.3039 65.5437 48.2836 65.5301 48.27C65.5166 48.2429 65.4963 48.2294 65.4692 48.2294H60.572C60.5178 48.2294 60.4907 48.2565 60.4907 48.3107V49.2657C60.4907 49.4012 60.4229 49.4689 60.2875 49.4689H59.0682C58.9328 49.4689 58.865 49.4012 58.865 49.2657V46.746C58.865 46.6105 58.9328 46.5428 59.0682 46.5428H67.4199C67.5554 46.5428 67.6231 46.6105 67.6231 46.746V48.1075C67.6231 48.1617 67.6096 48.2429 67.5825 48.3513L62.9901 60.6045C62.9494 60.7129 62.8749 60.7671 62.7666 60.7671H61.08ZM77.1828 53.7565C77.5621 54.4745 77.7518 55.3348 77.7518 56.3372C77.7518 57.1636 77.6163 57.8884 77.3453 58.5115C77.0338 59.2837 76.5461 59.8798 75.8823 60.2997C75.232 60.7061 74.4395 60.9093 73.5048 60.9093C72.5023 60.9093 71.6489 60.679 70.9444 60.2184C70.2535 59.7578 69.7658 59.1076 69.4813 58.2677C69.2781 57.6987 69.1765 57.0417 69.1765 56.2966V50.0379C69.1765 48.9271 69.5626 48.0397 70.3348 47.3759C71.107 46.7121 72.1162 46.3802 73.3625 46.3802C74.1618 46.3802 74.8663 46.5293 75.4759 46.8273C76.099 47.1253 76.5799 47.5453 76.9186 48.0872C77.2573 48.6155 77.4266 49.2251 77.4266 49.916V50.3224C77.4266 50.4579 77.3589 50.5256 77.2234 50.5256H75.6791C75.5436 50.5256 75.4759 50.4579 75.4759 50.3224V50.1395C75.4759 49.5299 75.2794 49.0354 74.8866 48.6561C74.4937 48.2768 73.9857 48.0872 73.3625 48.0872C72.6987 48.0872 72.1569 48.2836 71.7369 48.6764C71.3305 49.0693 71.1273 49.5909 71.1273 50.2411V52.8015C71.1273 52.8286 71.1341 52.8489 71.1476 52.8624C71.1747 52.8624 71.2018 52.8489 71.2289 52.8218C71.8114 52.1716 72.6581 51.8464 73.769 51.8464C75.3675 51.8464 76.5054 52.4831 77.1828 53.7565ZM75.4962 57.9019C75.6994 57.4684 75.801 56.9469 75.801 56.3372C75.801 55.6463 75.6791 55.0909 75.4352 54.671C75.0424 53.8852 74.3786 53.4924 73.4438 53.4924C72.9697 53.4924 72.5633 53.6008 72.2246 53.8175C71.8859 54.0207 71.6285 54.3187 71.4524 54.7116C71.2357 55.1587 71.1273 55.7344 71.1273 56.4388C71.1273 57.0078 71.2154 57.4887 71.3915 57.8816C71.5676 58.3151 71.8317 58.647 72.184 58.8773C72.5362 59.094 72.9629 59.2024 73.4641 59.2024C74.4531 59.2024 75.1304 58.7689 75.4962 57.9019ZM88.1647 54.4678C88.3137 55.0638 88.3882 55.6802 88.3882 56.3169C88.3882 56.9536 88.3069 57.5429 88.1444 58.0848C87.887 58.9518 87.3925 59.6427 86.661 60.1575C85.943 60.6587 85.0828 60.9093 84.0803 60.9093C83.0914 60.9093 82.2447 60.6655 81.5402 60.1778C80.8358 59.6901 80.3413 59.0263 80.0569 58.1864C79.9214 57.8071 79.8469 57.4752 79.8333 57.1907V57.1501C79.8333 57.0417 79.8943 56.9875 80.0162 56.9875H81.6215C81.7434 56.9875 81.8112 57.0485 81.8247 57.1704C81.8383 57.2652 81.8721 57.4074 81.9263 57.5971C82.0753 58.0983 82.3327 58.498 82.6985 58.796C83.0778 59.0805 83.5316 59.2227 84.06 59.2227C84.6154 59.2227 85.0828 59.0737 85.4621 58.7757C85.8549 58.4641 86.1191 58.0374 86.2546 57.4955C86.3494 57.211 86.3968 56.8182 86.3968 56.3169C86.3968 55.8699 86.3562 55.4567 86.2749 55.0774C86.1801 54.5626 85.9362 54.1697 85.5434 53.8988C85.164 53.6143 84.6899 53.4721 84.1209 53.4721C83.5926 53.4721 83.1185 53.594 82.6985 53.8378C82.2786 54.0681 82.0076 54.3797 81.8857 54.7726C81.845 54.8945 81.7705 54.9555 81.6622 54.9555H80.0365C79.9011 54.9555 79.8333 54.8877 79.8333 54.7522V46.746C79.8333 46.6105 79.9011 46.5428 80.0365 46.5428H87.6364C87.7718 46.5428 87.8396 46.6105 87.8396 46.746V48.0262C87.8396 48.1617 87.7718 48.2294 87.6364 48.2294H81.8654C81.8112 48.2294 81.7841 48.2565 81.7841 48.3107L81.7638 52.5576C81.7638 52.6389 81.7976 52.6592 81.8654 52.6186C82.1905 52.3341 82.563 52.1241 82.983 51.9887C83.4165 51.8397 83.8703 51.7651 84.3445 51.7651C85.2927 51.7651 86.1056 52.0022 86.7829 52.4764C87.4738 52.9505 87.9344 53.6143 88.1647 54.4678ZM95.0216 60.9703C93.6533 60.9703 92.5628 60.5842 91.75 59.812C90.9507 59.0263 90.5511 57.9764 90.5511 56.6624V50.6475C90.5511 49.3335 90.9507 48.2904 91.75 47.5182C92.5628 46.746 93.6533 46.3599 95.0216 46.3599C96.3898 46.3599 97.4803 46.746 98.2932 47.5182C99.1195 48.2904 99.5327 49.3335 99.5327 50.6475V56.6624C99.5327 57.9764 99.1195 59.0263 98.2932 59.812C97.4803 60.5842 96.3898 60.9703 95.0216 60.9703ZM95.0216 59.2837C95.8073 59.2837 96.4305 59.0602 96.891 58.6131C97.3516 58.1525 97.5819 57.5429 97.5819 56.7843V50.5662C97.5819 49.8076 97.3516 49.2048 96.891 48.7577C96.4305 48.2971 95.8073 48.0668 95.0216 48.0668C94.2629 48.0668 93.6533 48.2971 93.1927 48.7577C92.7321 49.2048 92.5018 49.8076 92.5018 50.5662V56.7843C92.5018 57.5429 92.7321 58.1525 93.1927 58.6131C93.6533 59.0602 94.2629 59.2837 95.0216 59.2837Z" fill="#264B45"/>
<path d="M155.87 64.7358C156.048 65.17 156.136 65.6706 156.136 66.2377C156.136 66.7073 156.065 67.1415 155.923 67.5402C155.729 68.0895 155.405 68.5148 154.953 68.8161C154.501 69.1085 153.956 69.2547 153.318 69.2547C152.681 69.2547 152.127 69.0908 151.657 68.7629C151.196 68.4351 150.873 67.9921 150.687 67.4339C150.589 67.1858 150.532 66.8313 150.514 66.3706C150.514 66.282 150.558 66.2377 150.647 66.2377H151.67C151.759 66.2377 151.803 66.282 151.803 66.3706C151.821 66.6896 151.856 66.9244 151.91 67.075C151.998 67.4028 152.162 67.6642 152.401 67.8592C152.65 68.0541 152.955 68.1516 153.318 68.1516C153.992 68.1516 154.444 67.8459 154.674 67.2345C154.789 66.9687 154.847 66.6231 154.847 66.1978C154.847 65.7459 154.776 65.3428 154.634 64.9883C154.386 64.439 153.943 64.1643 153.305 64.1643C153.155 64.1643 152.964 64.2308 152.734 64.3637C152.698 64.3814 152.672 64.3903 152.654 64.3903C152.61 64.3903 152.574 64.3681 152.548 64.3238L152.043 63.6327C152.025 63.5972 152.016 63.5662 152.016 63.5396C152.016 63.5131 152.029 63.4821 152.056 63.4466L154.329 61.0144C154.355 60.9701 154.346 60.9479 154.302 60.9479H150.767C150.678 60.9479 150.634 60.9036 150.634 60.815V59.9777C150.634 59.8891 150.678 59.8448 150.767 59.8448H155.923C156.012 59.8448 156.056 59.8891 156.056 59.9777V60.9346C156.056 60.979 156.034 61.0321 155.99 61.0941L153.97 63.3004C153.952 63.3181 153.948 63.3359 153.956 63.3536C153.965 63.3624 153.983 63.3713 154.01 63.3802C154.461 63.4245 154.842 63.5662 155.153 63.8055C155.463 64.0358 155.702 64.346 155.87 64.7358ZM159.278 67.9788C159.269 67.9965 159.269 68.0142 159.278 68.0319C159.287 68.0408 159.3 68.0452 159.318 68.0452H163.319C163.407 68.0452 163.452 68.0895 163.452 68.1781V69.0155C163.452 69.1041 163.407 69.1484 163.319 69.1484H157.75C157.661 69.1484 157.617 69.1041 157.617 69.0155V68.2047C157.617 68.1427 157.639 68.0895 157.683 68.0452C157.985 67.6997 158.676 66.8889 159.757 65.613L160.674 64.5099C161.498 63.5264 161.91 62.7644 161.91 62.2239C161.91 61.8074 161.768 61.4751 161.485 61.227C161.21 60.9701 160.842 60.8416 160.381 60.8416C159.921 60.8416 159.553 60.9701 159.278 61.227C159.004 61.484 158.871 61.8207 158.88 62.2371V62.6359C158.88 62.7245 158.835 62.7688 158.747 62.7688H157.723C157.635 62.7688 157.59 62.7245 157.59 62.6359V62.0644C157.608 61.6036 157.737 61.196 157.976 60.8416C158.224 60.4872 158.556 60.2169 158.973 60.0309C159.389 59.8359 159.859 59.7385 160.381 59.7385C160.948 59.7385 161.445 59.8448 161.87 60.0575C162.295 60.2701 162.623 60.5625 162.854 60.9346C163.084 61.3068 163.199 61.7277 163.199 62.1973C163.199 62.9327 162.8 63.801 162.003 64.8023C161.648 65.2542 161.228 65.7636 160.74 66.3307C160.253 66.8889 159.766 67.4383 159.278 67.9788ZM167.212 63.6593C166.849 63.6593 166.512 63.5707 166.202 63.3934C165.901 63.2162 165.662 62.977 165.484 62.6757C165.307 62.3745 165.219 62.0422 165.219 61.6789C165.219 61.3245 165.307 60.9967 165.484 60.6954C165.662 60.3942 165.901 60.1593 166.202 59.991C166.512 59.8138 166.849 59.7252 167.212 59.7252C167.567 59.7252 167.894 59.8138 168.196 59.991C168.497 60.1682 168.736 60.4074 168.913 60.7087C169.091 61.0011 169.179 61.3245 169.179 61.6789C169.179 62.0422 169.091 62.3745 168.913 62.6757C168.736 62.977 168.497 63.2162 168.196 63.3934C167.894 63.5707 167.567 63.6593 167.212 63.6593ZM166.827 69.1484C166.774 69.1484 166.738 69.1351 166.72 69.1085C166.703 69.0731 166.707 69.0332 166.734 68.9889L171.758 59.9378C171.793 59.8758 171.846 59.8448 171.917 59.8448H172.568C172.622 59.8448 172.657 59.8625 172.675 59.898C172.692 59.9245 172.688 59.96 172.661 60.0043L167.637 69.0553C167.611 69.1174 167.558 69.1484 167.478 69.1484H166.827ZM167.212 62.8751C167.54 62.8751 167.815 62.7599 168.036 62.5295C168.258 62.2992 168.368 62.0156 168.368 61.6789C168.368 61.3511 168.253 61.0764 168.023 60.8549C167.801 60.6245 167.531 60.5093 167.212 60.5093C166.884 60.5093 166.605 60.6245 166.375 60.8549C166.144 61.0764 166.029 61.3511 166.029 61.6789C166.029 62.0156 166.144 62.2992 166.375 62.5295C166.605 62.7599 166.884 62.8751 167.212 62.8751ZM172.276 69.268C171.913 69.268 171.576 69.1794 171.266 69.0022C170.965 68.825 170.725 68.5857 170.548 68.2845C170.371 67.9832 170.282 67.6554 170.282 67.301C170.282 66.9465 170.371 66.6187 170.548 66.3174C170.725 66.0162 170.965 65.7769 171.266 65.5997C171.576 65.4225 171.913 65.3339 172.276 65.3339C172.63 65.3339 172.958 65.4225 173.259 65.5997C173.561 65.7769 173.8 66.0162 173.977 66.3174C174.154 66.6187 174.243 66.9465 174.243 67.301C174.243 67.6554 174.154 67.9832 173.977 68.2845C173.8 68.5857 173.561 68.825 173.259 69.0022C172.958 69.1794 172.63 69.268 172.276 69.268ZM172.276 68.4838C172.604 68.4838 172.878 68.3686 173.1 68.1383C173.322 67.9079 173.432 67.6288 173.432 67.301C173.432 66.9731 173.317 66.694 173.087 66.4636C172.865 66.2333 172.595 66.1181 172.276 66.1181C171.948 66.1181 171.669 66.2333 171.439 66.4636C171.208 66.694 171.093 66.9731 171.093 67.301C171.093 67.6288 171.208 67.9079 171.439 68.1383C171.669 68.3686 171.948 68.4838 172.276 68.4838Z" fill="#02B994"/>
<path d="M180.477 68.1523C180.32 68.466 180.447 68.8475 180.761 69.0043C181.075 69.1611 181.456 69.034 181.613 68.7203L180.477 68.1523ZM195.015 58.8949C195.006 58.5443 194.715 58.2673 194.364 58.2763L188.651 58.4228C188.3 58.4318 188.023 58.7233 188.032 59.0739C188.041 59.4245 188.333 59.7014 188.683 59.6924L193.762 59.5622L193.892 64.6406C193.901 64.9912 194.192 65.2682 194.543 65.2592C194.894 65.2502 195.17 64.9587 195.161 64.6081L195.015 58.8949ZM183.531 63.4643L182.963 63.1803L183.531 63.4643ZM181.613 68.7203L184.099 63.7483L182.963 63.1803L180.477 68.1523L181.613 68.7203ZM185.054 63.5289L187.053 65.0669L187.828 64.0603L185.828 62.5223L185.054 63.5289ZM189.596 64.869L194.841 59.3485L193.92 58.4738L188.675 63.9943L189.596 64.869ZM187.053 65.0669C187.827 65.6617 188.924 65.5763 189.596 64.869L188.675 63.9943C188.451 64.23 188.085 64.2585 187.828 64.0603L187.053 65.0669ZM184.099 63.7483C184.277 63.3911 184.738 63.2855 185.054 63.5289L185.828 62.5223C184.879 61.7918 183.499 62.1088 182.963 63.1803L184.099 63.7483Z" fill="#02B994"/>
<rect x="23.6069" y="120.998" width="14.5755" height="6.70505" rx="3.35252" fill="#02B994"/>
<rect x="47.2067" y="116.975" width="13.8814" height="10.7281" rx="3.81008" fill="#02B994"/>
<rect x="70.1118" y="110.941" width="14.5755" height="16.7626" rx="3.81008" fill="#02B994"/>
<rect x="92.3177" y="102.223" width="14.5755" height="25.4792" rx="3.81008" fill="#02B994"/>
<rect x="114.53" y="88.1429" width="14.5755" height="39.5598" rx="3.81008" fill="#02B994"/>
<rect x="136.739" y="88.1429" width="14.5755" height="39.5598" rx="3.81008" fill="#02B994"/>
<rect x="158.952" y="82.1083" width="14.5755" height="45.5943" rx="3.81008" fill="#02B994"/>
<rect x="181.16" y="70.0396" width="14.5755" height="57.6634" rx="3.81008" fill="#02B994"/>
</g>
<defs>
<filter id="filter0_d_2_383" x="0.221711" y="0.310303" width="236.348" height="155.381" filterUnits="userSpaceOnUse" color-interpolation-filters="sRGB">
<feFlood flood-opacity="0" result="BackgroundImageFix"/>
<feColorMatrix in="SourceAlpha" type="matrix" values="0 0 0 0 0 0 0 0 0 0 0 0 0 0 0 0 0 0 127 0" result="hardAlpha"/>
<feOffset dx="1.08916" dy="3.26747"/>
<feGaussianBlur stdDeviation="5.99036"/>
<feComposite in2="hardAlpha" operator="out"/>
<feColorMatrix type="matrix" values="0 0 0 0 0 0 0 0 0 0 0 0 0 0 0 0 0 0 0.11 0"/>
<feBlend mode="normal" in2="BackgroundImageFix" result="effect1_dropShadow_2_383"/>
<feBlend mode="normal" in="SourceGraphic" in2="effect1_dropShadow_2_383" result="shape"/>
</filter>
</defs>
</svg>
