<svg width="20" height="20" viewBox="0 0 20 20" fill="none" xmlns="http://www.w3.org/2000/svg">
<path d="M5.00008 15.8333H8.07675V11.6025C8.07675 11.4119 8.14147 11.2522 8.27092 11.1233C8.3998 10.9939 8.55953 10.9292 8.75008 10.9292H11.2501C11.4406 10.9292 11.6006 10.9939 11.7301 11.1233C11.859 11.2522 11.9234 11.4119 11.9234 11.6025V15.8333H15.0001V8.59C15.0001 8.50444 14.9815 8.42667 14.9443 8.35667C14.907 8.28667 14.8562 8.22555 14.7917 8.17333L10.3051 4.79167C10.2195 4.71722 10.1179 4.68 10.0001 4.68C9.8823 4.68 9.78092 4.71722 9.69592 4.79167L5.20841 8.17333C5.14453 8.22667 5.09369 8.28778 5.05591 8.35667C5.01814 8.42556 4.99953 8.50333 5.00008 8.59V15.8333ZM4.16675 15.8333V8.59C4.16675 8.37667 4.21453 8.17472 4.31008 7.98417C4.40564 7.79361 4.5373 7.63667 4.70508 7.51333L9.19258 4.115C9.42758 3.93556 9.69592 3.84583 9.99758 3.84583C10.2992 3.84583 10.5692 3.93556 10.8076 4.115L15.2951 7.5125C15.4634 7.63583 15.5951 7.79306 15.6901 7.98417C15.7856 8.17472 15.8334 8.37667 15.8334 8.59V15.8333C15.8334 16.0567 15.7504 16.2514 15.5842 16.4175C15.4181 16.5836 15.2234 16.6667 15.0001 16.6667H11.7634C11.5723 16.6667 11.4123 16.6022 11.2834 16.4733C11.1545 16.3439 11.0901 16.1839 11.0901 15.9933V11.7633H8.91008V15.9933C8.91008 16.1844 8.84564 16.3444 8.71675 16.4733C8.58786 16.6022 8.42814 16.6667 8.23758 16.6667H5.00008C4.77675 16.6667 4.58203 16.5836 4.41591 16.4175C4.2498 16.2514 4.16675 16.0567 4.16675 15.8333Z" fill="#424242"/>
</svg>
