<svg width="57" height="50" viewBox="0 0 57 50" fill="none" xmlns="http://www.w3.org/2000/svg">
<g filter="url(#filter0_d_2_1284)">
<path d="M30.25 4.10863C27.3042 4.10718 24.433 5.03495 22.0451 6.75991C19.6572 8.48486 17.8742 10.9191 16.95 13.7161C16.8848 13.9423 16.7746 14.153 16.6261 14.3356C16.4775 14.5182 16.2937 14.6689 16.0855 14.7788C15.8774 14.8887 15.6492 14.9555 15.4146 14.9751C15.18 14.9948 14.9439 14.9669 14.7204 14.8932C14.4968 14.8194 14.2905 14.7014 14.1136 14.546C13.9368 14.3907 13.7931 14.2013 13.6912 13.9891C13.5892 13.7769 13.5311 13.5464 13.5204 13.3113C13.5096 13.0761 13.5464 12.8412 13.6285 12.6206C14.8434 8.95194 17.238 5.78833 20.4391 3.62304C23.6401 1.45775 27.4677 0.412491 31.3249 0.650225C35.1822 0.887959 38.8525 2.39533 41.7634 4.93731C44.6743 7.47929 46.6623 10.913 47.4175 14.7031C50.0574 15.0597 52.4631 16.4064 54.1473 18.4703C55.8314 20.5343 56.6682 23.1612 56.4879 25.819C56.3077 28.4767 55.1241 30.9667 53.1767 32.7844C51.2293 34.6021 48.6639 35.6117 46 35.6086H16.25C15.7859 35.6086 15.3408 35.4242 15.0126 35.0961C14.6844 34.7679 14.5 34.3227 14.5 33.8586C14.5 33.3945 14.6844 32.9494 15.0126 32.6212C15.3408 32.293 15.7859 32.1086 16.25 32.1086H46C47.8565 32.1091 49.6372 31.372 50.9503 30.0596C52.2633 28.7472 53.0013 26.9669 53.0018 25.1104C53.0022 23.2539 52.2652 21.4732 50.9527 20.1601C49.6403 18.847 47.86 18.1091 46.0035 18.1086H45.9125C45.4799 18.1113 45.0616 17.9535 44.7384 17.6659C44.4153 17.3783 44.2101 16.9811 44.1625 16.5511C43.7794 13.1293 42.1488 9.96857 39.5822 7.67319C37.0157 5.37782 33.6932 4.10878 30.25 4.10863ZM0.500008 19.8586C0.500008 19.3945 0.684382 18.9494 1.01257 18.6212C1.34076 18.293 1.78588 18.1086 2.25001 18.1086H19.75C20.2141 18.1086 20.6593 18.293 20.9874 18.6212C21.3156 18.9494 21.5 19.3945 21.5 19.8586C21.5 20.3228 21.3156 20.7679 20.9874 21.0961C20.6593 21.4243 20.2141 21.6086 19.75 21.6086H2.25001C1.78588 21.6086 1.34076 21.4243 1.01257 21.0961C0.684382 20.7679 0.500008 20.3228 0.500008 19.8586ZM7.50001 26.8586C7.50001 26.3945 7.68438 25.9494 8.01257 25.6212C8.34076 25.293 8.78588 25.1086 9.25001 25.1086H40.75C41.2141 25.1086 41.6593 25.293 41.9874 25.6212C42.3156 25.9494 42.5 26.3945 42.5 26.8586C42.5 27.3228 42.3156 27.7679 41.9874 28.0961C41.6593 28.4243 41.2141 28.6086 40.75 28.6086H9.25001C8.78588 28.6086 8.34076 28.4243 8.01257 28.0961C7.68438 27.7679 7.50001 27.3228 7.50001 26.8586ZM0.500008 40.8586C0.500008 40.3945 0.684382 39.9494 1.01257 39.6212C1.34076 39.293 1.78588 39.1086 2.25001 39.1086H33.75C34.2141 39.1086 34.6593 39.293 34.9874 39.6212C35.3156 39.9494 35.5 40.3945 35.5 40.8586C35.5 41.3227 35.3156 41.7679 34.9874 42.0961C34.6593 42.4242 34.2141 42.6086 33.75 42.6086H2.25001C1.78588 42.6086 1.34076 42.4242 1.01257 42.0961C0.684382 41.7679 0.500008 41.3227 0.500008 40.8586Z" fill="#184E7F"/>
</g>
<defs>
<filter id="filter0_d_2_1284" x="-3.49999" y="0.617056" width="64.012" height="49.9916" filterUnits="userSpaceOnUse" color-interpolation-filters="sRGB">
<feFlood flood-opacity="0" result="BackgroundImageFix"/>
<feColorMatrix in="SourceAlpha" type="matrix" values="0 0 0 0 0 0 0 0 0 0 0 0 0 0 0 0 0 0 127 0" result="hardAlpha"/>
<feOffset dy="4"/>
<feGaussianBlur stdDeviation="2"/>
<feComposite in2="hardAlpha" operator="out"/>
<feColorMatrix type="matrix" values="0 0 0 0 0 0 0 0 0 0 0 0 0 0 0 0 0 0 0.25 0"/>
<feBlend mode="normal" in2="BackgroundImageFix" result="effect1_dropShadow_2_1284"/>
<feBlend mode="normal" in="SourceGraphic" in2="effect1_dropShadow_2_1284" result="shape"/>
</filter>
</defs>
</svg>
