<svg width="20" height="20" viewBox="0 0 20 20" fill="none" xmlns="http://www.w3.org/2000/svg">
<path d="M7.08325 15.33V12.9167H5.41659C5.19557 12.9167 4.98361 12.8289 4.82733 12.6726C4.67105 12.5163 4.58325 12.3044 4.58325 12.0833V6.25001C4.58325 6.02899 4.67105 5.81703 4.82733 5.66075C4.98361 5.50447 5.19557 5.41667 5.41659 5.41667H14.5833C14.8043 5.41667 15.0162 5.50447 15.1725 5.66075C15.3288 5.81703 15.4166 6.02899 15.4166 6.25001V12.0833C15.4166 12.3044 15.3288 12.5163 15.1725 12.6726C15.0162 12.8289 14.8043 12.9167 14.5833 12.9167H9.99992L7.43909 15.4775C7.40995 15.5067 7.37279 15.5266 7.33233 15.5347C7.29187 15.5428 7.24992 15.5386 7.21181 15.5228C7.17369 15.507 7.14113 15.4803 7.11824 15.4459C7.09536 15.4116 7.08318 15.3713 7.08325 15.33Z" stroke="#424242"/>
<path d="M7.08325 10.4167H12.9166M7.08325 7.91667H12.9166" stroke="#424242" stroke-linecap="round"/>
</svg>
