<svg width="20" height="20" viewBox="0 0 20 20" fill="none" xmlns="http://www.w3.org/2000/svg">
<path d="M4.16659 18.3333C3.94557 18.3333 3.73361 18.2455 3.57733 18.0893C3.42105 17.933 3.33325 17.721 3.33325 17.5V10.8333C3.33325 10.6123 3.42105 10.4004 3.57733 10.2441C3.73361 10.0878 3.94557 10 4.16659 10C4.3876 10 4.59956 10.0878 4.75584 10.2441C4.91212 10.4004 4.99992 10.6123 4.99992 10.8333V17.5C4.99992 17.721 4.91212 17.933 4.75584 18.0893C4.59956 18.2455 4.3876 18.3333 4.16659 18.3333ZM8.33325 18.3333C8.11224 18.3333 7.90028 18.2455 7.744 18.0893C7.58772 17.933 7.49992 17.721 7.49992 17.5V2.5C7.49992 2.27899 7.58772 2.06703 7.744 1.91075C7.90028 1.75447 8.11224 1.66667 8.33325 1.66667C8.55427 1.66667 8.76623 1.75447 8.92251 1.91075C9.07879 2.06703 9.16659 2.27899 9.16659 2.5V17.5C9.16659 17.721 9.07879 17.933 8.92251 18.0893C8.76623 18.2455 8.55427 18.3333 8.33325 18.3333ZM12.4999 18.3333C12.2789 18.3333 12.0669 18.2455 11.9107 18.0893C11.7544 17.933 11.6666 17.721 11.6666 17.5V7.5C11.6666 7.27899 11.7544 7.06703 11.9107 6.91075C12.0669 6.75447 12.2789 6.66667 12.4999 6.66667C12.7209 6.66667 12.9329 6.75447 13.0892 6.91075C13.2455 7.06703 13.3333 7.27899 13.3333 7.5V17.5C13.3333 17.721 13.2455 17.933 13.0892 18.0893C12.9329 18.2455 12.7209 18.3333 12.4999 18.3333ZM16.6666 18.3333C16.4456 18.3333 16.2336 18.2455 16.0773 18.0893C15.921 17.933 15.8333 17.721 15.8333 17.5V14.1667C15.8333 13.9457 15.921 13.7337 16.0773 13.5774C16.2336 13.4211 16.4456 13.3333 16.6666 13.3333C16.8876 13.3333 17.0996 13.4211 17.2558 13.5774C17.4121 13.7337 17.4999 13.9457 17.4999 14.1667V17.5C17.4999 17.721 17.4121 17.933 17.2558 18.0893C17.0996 18.2455 16.8876 18.3333 16.6666 18.3333Z" fill="#424242"/>
</svg>
