<svg width="20" height="20" viewBox="0 0 20 20" fill="none" xmlns="http://www.w3.org/2000/svg">
<path d="M10.2458 7.51211C9.73283 7.46145 9.21677 7.57057 8.76825 7.82454C8.31973 8.07851 7.96067 8.4649 7.74023 8.93082C7.51979 9.39673 7.44875 9.91939 7.53684 10.4272C7.62492 10.9351 7.86783 11.4033 8.23229 11.7678C8.59676 12.1322 9.06497 12.3751 9.57282 12.4632C10.0807 12.5513 10.6033 12.4803 11.0693 12.2598C11.5352 12.0394 11.9216 11.6803 12.1755 11.2318C12.4295 10.7833 12.5386 10.2672 12.488 9.7543C12.4302 9.17929 12.1754 8.64193 11.7668 8.23329C11.3581 7.82465 10.8208 7.56986 10.2458 7.51211ZM16.2653 10C16.2637 10.2717 16.2438 10.5431 16.2055 10.8121L17.9716 12.1973C18.0485 12.261 18.1003 12.35 18.1178 12.4483C18.1353 12.5466 18.1174 12.648 18.0673 12.7344L16.3966 15.625C16.3458 15.7106 16.2665 15.7754 16.1726 15.8082C16.0787 15.841 15.9762 15.8396 15.8833 15.8043L14.1294 15.098C14.0326 15.0595 13.9279 15.0456 13.8245 15.0576C13.721 15.0695 13.6222 15.1069 13.5368 15.1664C13.2691 15.3507 12.9878 15.5145 12.6954 15.6562C12.6034 15.7009 12.5239 15.7676 12.4638 15.8503C12.4037 15.933 12.3649 16.0292 12.3508 16.1305L12.088 18.0012C12.0707 18.1 12.0196 18.1897 11.9436 18.255C11.8675 18.3204 11.771 18.3573 11.6708 18.3594H8.32936C8.23075 18.3577 8.13565 18.3224 8.05975 18.2594C7.98384 18.1965 7.93166 18.1095 7.91179 18.0129L7.64929 16.1449C7.63454 16.0426 7.59474 15.9454 7.5334 15.8621C7.47207 15.7789 7.39111 15.712 7.29772 15.6676C7.0056 15.5266 6.72527 15.3624 6.45944 15.1766C6.37432 15.1173 6.27581 15.0802 6.17277 15.0686C6.06973 15.0569 5.96541 15.0711 5.86921 15.1098L4.11569 15.8156C4.02277 15.851 3.92033 15.8525 3.82644 15.8197C3.73254 15.787 3.65321 15.7222 3.60241 15.6367L1.93171 12.7461C1.88148 12.6597 1.86353 12.5583 1.88105 12.46C1.89858 12.3616 1.95044 12.2727 2.02741 12.209L3.51999 11.0371C3.60176 10.9722 3.66603 10.8879 3.70696 10.7918C3.74789 10.6958 3.76418 10.5911 3.75436 10.4871C3.7403 10.3242 3.73171 10.1617 3.73171 9.99883C3.73171 9.83594 3.73991 9.67578 3.75436 9.51641C3.76311 9.4131 3.74601 9.30924 3.70462 9.21418C3.66323 9.11912 3.59884 9.03585 3.51725 8.97187L2.02546 7.8C1.94974 7.73597 1.89897 7.64734 1.88204 7.54964C1.86511 7.45194 1.88311 7.35139 1.93288 7.26562L3.60358 4.375C3.65432 4.28945 3.73363 4.22455 3.82753 4.19175C3.92143 4.15895 4.02389 4.16035 4.11686 4.1957L5.87077 4.90195C5.96749 4.94046 6.07225 4.95438 6.17567 4.94245C6.27909 4.93052 6.37794 4.89311 6.46335 4.83359C6.73103 4.64927 7.0123 4.48552 7.30475 4.34375C7.3967 4.29906 7.47622 4.23242 7.53631 4.14972C7.5964 4.06701 7.6352 3.97078 7.64929 3.86953L7.91218 1.99883C7.92944 1.90003 7.98048 1.8103 8.05658 1.74496C8.13267 1.67963 8.22909 1.64275 8.32936 1.64062H11.6708C11.7694 1.64233 11.8645 1.67758 11.9404 1.74056C12.0163 1.80354 12.0685 1.8905 12.0883 1.98711L12.3508 3.85508C12.3656 3.95745 12.4054 4.05459 12.4667 4.13787C12.5281 4.22114 12.609 4.28798 12.7024 4.33242C12.9945 4.47338 13.2749 4.63758 13.5407 4.82344C13.6258 4.88266 13.7243 4.91978 13.8274 4.93144C13.9304 4.9431 14.0347 4.92894 14.1309 4.89023L15.8844 4.18438C15.9774 4.14899 16.0798 4.14753 16.1737 4.18026C16.2676 4.21299 16.3469 4.2778 16.3977 4.36328L18.0684 7.25391C18.1187 7.34027 18.1366 7.44165 18.1191 7.54001C18.1016 7.63837 18.0497 7.72732 17.9727 7.79102L16.4801 8.96289C16.398 9.02759 16.3334 9.1118 16.2921 9.20786C16.2508 9.30392 16.2342 9.40878 16.2438 9.51289C16.2567 9.67461 16.2653 9.83711 16.2653 10Z" stroke="#424242" stroke-linecap="round" stroke-linejoin="round"/>
</svg>
