<svg width="20" height="20" viewBox="0 0 20 20" fill="none" xmlns="http://www.w3.org/2000/svg">
<path d="M10.0001 8.33332C10.8841 8.33332 11.732 7.98213 12.3571 7.35701C12.9822 6.73189 13.3334 5.88404 13.3334 4.99999C13.3334 4.11593 12.9822 3.26809 12.3571 2.64297C11.732 2.01785 10.8841 1.66666 10.0001 1.66666C9.11602 1.66666 8.26818 2.01785 7.64306 2.64297C7.01794 3.26809 6.66675 4.11593 6.66675 4.99999C6.66675 5.88404 7.01794 6.73189 7.64306 7.35701C8.26818 7.98213 9.11602 8.33332 10.0001 8.33332ZM4.58341 10.8333C5.13595 10.8333 5.66585 10.6138 6.05655 10.2231C6.44725 9.83243 6.66675 9.30252 6.66675 8.74999C6.66675 8.19745 6.44725 7.66755 6.05655 7.27685C5.66585 6.88615 5.13595 6.66666 4.58341 6.66666C4.03088 6.66666 3.50098 6.88615 3.11028 7.27685C2.71957 7.66755 2.50008 8.19745 2.50008 8.74999C2.50008 9.30252 2.71957 9.83243 3.11028 10.2231C3.50098 10.6138 4.03088 10.8333 4.58341 10.8333ZM17.5001 8.74999C17.5001 9.30252 17.2806 9.83243 16.8899 10.2231C16.4992 10.6138 15.9693 10.8333 15.4167 10.8333C14.8642 10.8333 14.3343 10.6138 13.9436 10.2231C13.5529 9.83243 13.3334 9.30252 13.3334 8.74999C13.3334 8.19745 13.5529 7.66755 13.9436 7.27685C14.3343 6.88615 14.8642 6.66666 15.4167 6.66666C15.9693 6.66666 16.4992 6.88615 16.8899 7.27685C17.2806 7.66755 17.5001 8.19745 17.5001 8.74999ZM10.0001 9.16666C11.1051 9.16666 12.165 9.60564 12.9464 10.387C13.7278 11.1684 14.1667 12.2283 14.1667 13.3333V18.3333H5.83341V13.3333C5.83341 12.2283 6.2724 11.1684 7.0538 10.387C7.8352 9.60564 8.89501 9.16666 10.0001 9.16666ZM4.16675 13.3333C4.16675 12.7558 4.25008 12.1983 4.40675 11.6717L4.26508 11.6833C3.55081 11.7617 2.89063 12.1011 2.41113 12.6362C1.93163 13.1714 1.66656 13.8648 1.66675 14.5833V18.3333H4.16675V13.3333ZM18.3334 18.3333V14.5833C18.3335 13.8403 18.05 13.1252 17.5408 12.5841C17.0316 12.043 16.3351 11.7167 15.5934 11.6717C15.7492 12.1983 15.8334 12.7558 15.8334 13.3333V18.3333H18.3334Z" fill="#424242"/>
</svg>
