<svg width="20" height="20" viewBox="0 0 20 20" fill="none" xmlns="http://www.w3.org/2000/svg">
<path d="M20 7.5V2.5C20 1.83696 19.7893 1.20107 19.4142 0.732233C19.0391 0.263392 18.5304 0 18 0H2C1.46957 0 0.960859 0.263392 0.585786 0.732233C0.210714 1.20107 0 1.83696 0 2.5V7.5C0.530433 7.5 1.03914 7.76339 1.41421 8.23223C1.78929 8.70107 2 9.33696 2 10C2 10.663 1.78929 11.2989 1.41421 11.7678C1.03914 12.2366 0.530433 12.5 0 12.5V17.5C0 18.875 0.9 20 2 20H18C19.1 20 20 18.875 20 17.5V12.5C18.9 12.5 18 11.375 18 10C18 8.625 18.9 7.5 20 7.5ZM18 5.675C16.81 6.5375 16 8.1625 16 10C16 11.8375 16.81 13.4625 18 14.325V17.5H2V14.325C3.19 13.4625 4 11.8375 4 10C4 8.125 3.2 6.5375 2 5.675V2.5H18V5.675ZM9 13.75H11V16.25H9M9 8.75H11V11.25H9M9 3.75H11V6.25H9V3.75Z" fill="#808080"/>
</svg>
